G04*
G04 #@! TF.GenerationSoftware,Altium Limited,Altium Designer,21.7.2 (23)*
G04*
G04 Layer_Color=16711935*
%FSLAX25Y25*%
%MOIN*%
G70*
G04*
G04 #@! TF.SameCoordinates,B87F5D9A-147D-4DEB-93F1-AF521ED98CA3*
G04*
G04*
G04 #@! TF.FilePolarity,Negative*
G04*
G01*
G75*
%ADD10C,0.01000*%
%ADD11C,0.10800*%
%ADD13C,0.00800*%
%ADD14C,0.04000*%
G36*
X286726Y385239D02*
X286933D01*
Y385187D01*
X286985D01*
Y385135D01*
X287089D01*
Y385083D01*
X287193D01*
Y385031D01*
X287245D01*
Y384979D01*
X287297D01*
Y384927D01*
X287349D01*
Y384823D01*
X287401D01*
Y384771D01*
X287453D01*
Y384719D01*
X287505D01*
Y384563D01*
X287557D01*
Y384459D01*
X287609D01*
Y383836D01*
X287557D01*
Y383680D01*
X287505D01*
Y383576D01*
X287453D01*
Y383524D01*
X287401D01*
Y383472D01*
X287349D01*
Y383368D01*
X287297D01*
Y383316D01*
X287245D01*
Y383264D01*
X287193D01*
Y383212D01*
X287089D01*
Y383160D01*
X287037D01*
Y383108D01*
X286933D01*
Y383056D01*
X286829D01*
Y383004D01*
X286570D01*
Y382952D01*
X286206D01*
Y383004D01*
X285946D01*
Y383056D01*
X285894D01*
Y383108D01*
X285790D01*
Y383160D01*
X285738D01*
Y383212D01*
X285686D01*
Y383264D01*
X285634D01*
Y383316D01*
X285582D01*
Y383368D01*
X285530D01*
Y383420D01*
X285478D01*
Y383524D01*
X285426D01*
Y383628D01*
X285374D01*
Y383784D01*
X285322D01*
Y384355D01*
X285374D01*
Y384563D01*
X285426D01*
Y384667D01*
X285478D01*
Y384771D01*
X285530D01*
Y384823D01*
X285582D01*
Y384875D01*
X285634D01*
Y384979D01*
X285686D01*
Y385031D01*
X285738D01*
Y385083D01*
X285842D01*
Y385135D01*
X285946D01*
Y385187D01*
X285998D01*
Y385239D01*
X286154D01*
Y385291D01*
X286726D01*
Y385239D01*
D02*
G37*
G36*
X294990Y385031D02*
X295821D01*
Y384979D01*
X296393D01*
Y384927D01*
X296601D01*
Y384875D01*
X297017D01*
Y384823D01*
X297173D01*
Y384771D01*
X297432D01*
Y384719D01*
X297640D01*
Y384667D01*
X297796D01*
Y384615D01*
X298004D01*
Y384563D01*
X298108D01*
Y384511D01*
X298316D01*
Y384459D01*
X298420D01*
Y384407D01*
X298576D01*
Y384355D01*
X298732D01*
Y384303D01*
X298784D01*
Y384252D01*
X298940D01*
Y384200D01*
X299044D01*
Y384148D01*
X299148D01*
Y384096D01*
X299304D01*
Y384044D01*
X299356D01*
Y383992D01*
X299511D01*
Y383940D01*
X299563D01*
Y383888D01*
X299667D01*
Y383836D01*
X299719D01*
Y383784D01*
X299823D01*
Y383732D01*
X299927D01*
Y383680D01*
X299979D01*
Y383628D01*
X300083D01*
Y383576D01*
X300135D01*
Y383524D01*
X300239D01*
Y383472D01*
X300291D01*
Y383420D01*
X300343D01*
Y383368D01*
X300447D01*
Y383316D01*
X300499D01*
Y383264D01*
X300551D01*
Y383212D01*
X300603D01*
Y383160D01*
X300655D01*
Y383108D01*
X300707D01*
Y383056D01*
X300759D01*
Y383004D01*
X300863D01*
Y382952D01*
X300915D01*
Y382900D01*
X300967D01*
Y382848D01*
X301019D01*
Y382796D01*
X301071D01*
Y382692D01*
X301123D01*
Y382640D01*
X301175D01*
Y382588D01*
X301227D01*
Y382536D01*
X301279D01*
Y382484D01*
X301331D01*
Y382381D01*
X301434D01*
Y382277D01*
X301486D01*
Y382224D01*
X301538D01*
Y382121D01*
X301590D01*
Y382069D01*
X301642D01*
Y381965D01*
X301694D01*
Y381913D01*
X301746D01*
Y381861D01*
X301798D01*
Y381757D01*
X301850D01*
Y381653D01*
X301902D01*
Y381601D01*
X301954D01*
Y381497D01*
X302006D01*
Y381445D01*
X302058D01*
Y381289D01*
X302110D01*
Y381237D01*
X302162D01*
Y381133D01*
X302214D01*
Y381029D01*
X302266D01*
Y380925D01*
X302318D01*
Y380769D01*
X302370D01*
Y380717D01*
X302422D01*
Y380509D01*
X302474D01*
Y380353D01*
X302526D01*
Y380250D01*
X302578D01*
Y379990D01*
X302630D01*
Y379834D01*
X302682D01*
Y379522D01*
X302734D01*
Y379210D01*
X302786D01*
Y378586D01*
X302838D01*
Y377495D01*
X302786D01*
Y376819D01*
X302734D01*
Y376455D01*
X302682D01*
Y376040D01*
X302630D01*
Y375884D01*
X302578D01*
Y375572D01*
X302526D01*
Y375468D01*
X302474D01*
Y375260D01*
X302422D01*
Y375104D01*
X302370D01*
Y375000D01*
X302318D01*
Y374792D01*
X302266D01*
Y374740D01*
X302214D01*
Y374584D01*
X302162D01*
Y374480D01*
X302110D01*
Y374428D01*
X302058D01*
Y374272D01*
X302006D01*
Y374220D01*
X301954D01*
Y374116D01*
X301902D01*
Y374012D01*
X301850D01*
Y373960D01*
X301798D01*
Y373857D01*
X301746D01*
Y373805D01*
X301694D01*
Y373701D01*
X301642D01*
Y373649D01*
X301590D01*
Y373597D01*
X301538D01*
Y373545D01*
X301486D01*
Y373493D01*
X301434D01*
Y373389D01*
X301382D01*
Y373337D01*
X301331D01*
Y373285D01*
X301279D01*
Y373233D01*
X301227D01*
Y373181D01*
X301175D01*
Y373129D01*
X301123D01*
Y373077D01*
X301071D01*
Y373025D01*
X301019D01*
Y372973D01*
X300967D01*
Y372921D01*
X300915D01*
Y372869D01*
X300863D01*
Y372817D01*
X300811D01*
Y372765D01*
X300707D01*
Y372713D01*
X300655D01*
Y372661D01*
X300603D01*
Y372609D01*
X300551D01*
Y372557D01*
X300447D01*
Y372505D01*
X300395D01*
Y372453D01*
X300343D01*
Y372401D01*
X300239D01*
Y372349D01*
X300187D01*
Y372297D01*
X300083D01*
Y372245D01*
X300031D01*
Y372193D01*
X299927D01*
Y372141D01*
X299823D01*
Y372089D01*
X299771D01*
Y372037D01*
X299667D01*
Y371985D01*
X299563D01*
Y371934D01*
X299460D01*
Y371882D01*
X299356D01*
Y371830D01*
X299304D01*
Y371778D01*
X299148D01*
Y371726D01*
X299096D01*
Y371674D01*
X298940D01*
Y371622D01*
X298836D01*
Y371570D01*
X298732D01*
Y371518D01*
X298576D01*
Y371466D01*
X298524D01*
Y371414D01*
X298368D01*
Y371362D01*
X298264D01*
Y371310D01*
X298108D01*
Y371258D01*
X297952D01*
Y371206D01*
X297848D01*
Y371154D01*
X297692D01*
Y371102D01*
X297588D01*
Y371050D01*
X297432D01*
Y370998D01*
X297276D01*
Y370946D01*
X297121D01*
Y370894D01*
X296965D01*
Y370842D01*
X296861D01*
Y370790D01*
X296653D01*
Y370738D01*
X296497D01*
Y370686D01*
X296341D01*
Y370634D01*
X296133D01*
Y370582D01*
X296029D01*
Y370530D01*
X295821D01*
Y370478D01*
X295717D01*
Y370426D01*
X295561D01*
Y370374D01*
X295405D01*
Y370322D01*
X295302D01*
Y370270D01*
X295094D01*
Y370218D01*
X294990D01*
Y370166D01*
X294834D01*
Y370114D01*
X294730D01*
Y370062D01*
X294574D01*
Y370010D01*
X294418D01*
Y369958D01*
X294366D01*
Y369906D01*
X294158D01*
Y369854D01*
X294106D01*
Y369802D01*
X293950D01*
Y369750D01*
X293846D01*
Y369699D01*
X293794D01*
Y369647D01*
X293638D01*
Y369595D01*
X293586D01*
Y369543D01*
X293482D01*
Y369491D01*
X293378D01*
Y369439D01*
X293326D01*
Y369387D01*
X293222D01*
Y369335D01*
X293170D01*
Y369283D01*
X293067D01*
Y369231D01*
X293015D01*
Y369179D01*
X292963D01*
Y369127D01*
X292859D01*
Y369023D01*
X292755D01*
Y368919D01*
X292703D01*
Y368867D01*
X292651D01*
Y368815D01*
X292599D01*
Y368711D01*
X292547D01*
Y368659D01*
X292495D01*
Y368555D01*
X292443D01*
Y368451D01*
X292391D01*
Y368347D01*
X292339D01*
Y368087D01*
X292287D01*
Y367879D01*
X292235D01*
Y366996D01*
X292287D01*
Y366788D01*
X292339D01*
Y366528D01*
X292391D01*
Y366424D01*
X292443D01*
Y366320D01*
X292495D01*
Y366216D01*
X292547D01*
Y366112D01*
X292599D01*
Y366060D01*
X292651D01*
Y366008D01*
X292703D01*
Y365904D01*
X292755D01*
Y365852D01*
X292807D01*
Y365800D01*
X292859D01*
Y365748D01*
X292911D01*
Y365697D01*
X292963D01*
Y365645D01*
X293015D01*
Y365593D01*
X293067D01*
Y365541D01*
X293170D01*
Y365489D01*
X293222D01*
Y365437D01*
X293326D01*
Y365385D01*
X293430D01*
Y365333D01*
X293534D01*
Y365281D01*
X293638D01*
Y365229D01*
X293742D01*
Y365177D01*
X293950D01*
Y365125D01*
X294054D01*
Y365073D01*
X294314D01*
Y365021D01*
X294574D01*
Y364969D01*
X294782D01*
Y364917D01*
X295613D01*
Y364865D01*
X296185D01*
Y364917D01*
X296705D01*
Y364969D01*
X296913D01*
Y365021D01*
X297121D01*
Y365073D01*
X297328D01*
Y365125D01*
X297432D01*
Y365177D01*
X297640D01*
Y365229D01*
X297744D01*
Y365281D01*
X297952D01*
Y365333D01*
X298056D01*
Y365385D01*
X298160D01*
Y365437D01*
X298368D01*
Y365489D01*
X298420D01*
Y365541D01*
X298576D01*
Y365593D01*
X298680D01*
Y365645D01*
X298836D01*
Y365697D01*
X298940D01*
Y365748D01*
X299044D01*
Y365800D01*
X299200D01*
Y365852D01*
X299252D01*
Y365904D01*
X299408D01*
Y365956D01*
X299511D01*
Y366008D01*
X299563D01*
Y366060D01*
X299719D01*
Y366112D01*
X299771D01*
Y366164D01*
X299927D01*
Y366216D01*
X300031D01*
Y366268D01*
X300135D01*
Y366320D01*
X300239D01*
Y366372D01*
X300291D01*
Y366424D01*
X300447D01*
Y366476D01*
X300499D01*
Y366528D01*
X300655D01*
Y366580D01*
X300707D01*
Y366632D01*
X300811D01*
Y366684D01*
X300967D01*
Y366736D01*
X301019D01*
Y366788D01*
X301123D01*
Y366840D01*
X301227D01*
Y366892D01*
X301279D01*
Y366944D01*
X301382D01*
Y366996D01*
X301486D01*
Y367048D01*
X301590D01*
Y367100D01*
X301642D01*
Y367152D01*
X301798D01*
Y367204D01*
X301850D01*
Y367256D01*
X301954D01*
Y367308D01*
X302058D01*
Y367360D01*
X302110D01*
Y367412D01*
X302214D01*
Y367464D01*
X302266D01*
Y367516D01*
X302474D01*
Y362110D01*
X302422D01*
Y362058D01*
X302266D01*
Y362006D01*
X302214D01*
Y361954D01*
X302110D01*
Y361902D01*
X302006D01*
Y361850D01*
X301902D01*
Y361798D01*
X301746D01*
Y361746D01*
X301694D01*
Y361694D01*
X301590D01*
Y361642D01*
X301486D01*
Y361590D01*
X301382D01*
Y361539D01*
X301227D01*
Y361487D01*
X301175D01*
Y361435D01*
X300967D01*
Y361383D01*
X300915D01*
Y361331D01*
X300759D01*
Y361279D01*
X300603D01*
Y361227D01*
X300499D01*
Y361175D01*
X300291D01*
Y361123D01*
X300187D01*
Y361071D01*
X299979D01*
Y361019D01*
X299875D01*
Y360967D01*
X299667D01*
Y360915D01*
X299460D01*
Y360863D01*
X299304D01*
Y360811D01*
X298992D01*
Y360759D01*
X298784D01*
Y360707D01*
X298472D01*
Y360655D01*
X298160D01*
Y360603D01*
X297848D01*
Y360551D01*
X297173D01*
Y360499D01*
X296601D01*
Y360447D01*
X294366D01*
Y360499D01*
X293950D01*
Y360551D01*
X293326D01*
Y360603D01*
X293119D01*
Y360655D01*
X292807D01*
Y360707D01*
X292547D01*
Y360759D01*
X292391D01*
Y360811D01*
X292131D01*
Y360863D01*
X292079D01*
Y360915D01*
X291871D01*
Y360967D01*
X291767D01*
Y361019D01*
X291611D01*
Y361071D01*
X291455D01*
Y361123D01*
X291403D01*
Y361175D01*
X291247D01*
Y361227D01*
X291195D01*
Y361279D01*
X291091D01*
Y361331D01*
X290987D01*
Y361383D01*
X290884D01*
Y361435D01*
X290780D01*
Y361487D01*
X290728D01*
Y361539D01*
X290624D01*
Y361590D01*
X290520D01*
Y361642D01*
X290468D01*
Y361694D01*
X290364D01*
Y361746D01*
X290312D01*
Y361798D01*
X290156D01*
Y361850D01*
X290104D01*
Y361902D01*
X290052D01*
Y361954D01*
X289948D01*
Y362006D01*
X289844D01*
Y362058D01*
X289740D01*
Y362110D01*
X289688D01*
Y362162D01*
X289584D01*
Y362214D01*
X289532D01*
Y362266D01*
X289428D01*
Y362318D01*
X289324D01*
Y362370D01*
X289272D01*
Y362422D01*
X289168D01*
Y362474D01*
X289116D01*
Y362526D01*
X289013D01*
Y362578D01*
X288961D01*
Y362630D01*
X288909D01*
Y362682D01*
X288857D01*
Y362734D01*
X288805D01*
Y362786D01*
X288753D01*
Y362838D01*
X288701D01*
Y362942D01*
X288649D01*
Y363046D01*
X288597D01*
Y363202D01*
X288545D01*
Y363254D01*
X288493D01*
Y363358D01*
X288441D01*
Y363410D01*
X288389D01*
Y363513D01*
X288337D01*
Y363617D01*
X288285D01*
Y363669D01*
X288233D01*
Y363773D01*
X288181D01*
Y363825D01*
X288129D01*
Y363929D01*
X288077D01*
Y364033D01*
X288025D01*
Y364085D01*
X287973D01*
Y364189D01*
X287921D01*
Y364241D01*
X287869D01*
Y364345D01*
X287817D01*
Y364449D01*
X287765D01*
Y364553D01*
X287713D01*
Y364709D01*
X287661D01*
Y364761D01*
X287609D01*
Y364917D01*
X287557D01*
Y364969D01*
X287505D01*
Y365125D01*
X287453D01*
Y365333D01*
X287401D01*
Y365385D01*
X287349D01*
Y365645D01*
X287297D01*
Y365800D01*
X287245D01*
Y366164D01*
X287193D01*
Y366528D01*
X287141D01*
Y368503D01*
X287193D01*
Y368971D01*
X287245D01*
Y369335D01*
X287297D01*
Y369543D01*
X287349D01*
Y369854D01*
X287401D01*
Y369958D01*
X287453D01*
Y370166D01*
X287505D01*
Y370322D01*
X287557D01*
Y370426D01*
X287609D01*
Y370634D01*
X287661D01*
Y370738D01*
X287713D01*
Y370894D01*
X287765D01*
Y370998D01*
X287817D01*
Y371050D01*
X287869D01*
Y371206D01*
X287921D01*
Y371258D01*
X287973D01*
Y371414D01*
X288025D01*
Y371466D01*
X288077D01*
Y371570D01*
X288129D01*
Y371622D01*
X288181D01*
Y371726D01*
X288233D01*
Y371778D01*
X288285D01*
Y371882D01*
X288337D01*
Y371934D01*
X288389D01*
Y371985D01*
X288441D01*
Y372089D01*
X288493D01*
Y372141D01*
X288545D01*
Y372193D01*
X288597D01*
Y372245D01*
X288649D01*
Y372297D01*
X288701D01*
Y372401D01*
X288753D01*
Y372453D01*
X288805D01*
Y372505D01*
X288857D01*
Y372557D01*
X288909D01*
Y372609D01*
X288961D01*
Y372661D01*
X289013D01*
Y372713D01*
X289064D01*
Y372765D01*
X289116D01*
Y372817D01*
X289220D01*
Y372869D01*
X289272D01*
Y372921D01*
X289324D01*
Y372973D01*
X289376D01*
Y373025D01*
X289428D01*
Y373077D01*
X289480D01*
Y373129D01*
X289584D01*
Y373181D01*
X289636D01*
Y373233D01*
X289688D01*
Y373285D01*
X289792D01*
Y373337D01*
X289844D01*
Y373389D01*
X289896D01*
Y373441D01*
X290000D01*
Y373493D01*
X290052D01*
Y373545D01*
X290156D01*
Y373597D01*
X290208D01*
Y373649D01*
X290312D01*
Y373701D01*
X290364D01*
Y373753D01*
X290468D01*
Y373805D01*
X290572D01*
Y373857D01*
X290676D01*
Y373908D01*
X290780D01*
Y373960D01*
X290832D01*
Y374012D01*
X290987D01*
Y374064D01*
X291039D01*
Y374116D01*
X291143D01*
Y374168D01*
X291299D01*
Y374220D01*
X291351D01*
Y374272D01*
X291507D01*
Y374324D01*
X291611D01*
Y374376D01*
X291715D01*
Y374428D01*
X291871D01*
Y374480D01*
X291975D01*
Y374532D01*
X292131D01*
Y374584D01*
X292235D01*
Y374636D01*
X292391D01*
Y374688D01*
X292547D01*
Y374740D01*
X292651D01*
Y374792D01*
X292859D01*
Y374844D01*
X292963D01*
Y374896D01*
X293170D01*
Y374948D01*
X293274D01*
Y375000D01*
X293482D01*
Y375052D01*
X293638D01*
Y375104D01*
X293742D01*
Y375156D01*
X294002D01*
Y375208D01*
X294106D01*
Y375260D01*
X294314D01*
Y375312D01*
X294418D01*
Y375364D01*
X294574D01*
Y375416D01*
X294730D01*
Y375468D01*
X294834D01*
Y375520D01*
X295094D01*
Y375572D01*
X295198D01*
Y375624D01*
X295353D01*
Y375676D01*
X295457D01*
Y375728D01*
X295561D01*
Y375780D01*
X295769D01*
Y375832D01*
X295821D01*
Y375884D01*
X295977D01*
Y375936D01*
X296081D01*
Y375988D01*
X296185D01*
Y376040D01*
X296341D01*
Y376092D01*
X296393D01*
Y376143D01*
X296549D01*
Y376195D01*
X296601D01*
Y376247D01*
X296705D01*
Y376299D01*
X296809D01*
Y376351D01*
X296861D01*
Y376403D01*
X296965D01*
Y376507D01*
X297069D01*
Y376559D01*
X297121D01*
Y376611D01*
X297173D01*
Y376663D01*
X297224D01*
Y376715D01*
X297276D01*
Y376767D01*
X297328D01*
Y376819D01*
X297380D01*
Y376871D01*
X297432D01*
Y376975D01*
X297484D01*
Y377027D01*
X297536D01*
Y377131D01*
X297588D01*
Y377235D01*
X297640D01*
Y377287D01*
X297692D01*
Y377443D01*
X297744D01*
Y377599D01*
X297796D01*
Y377807D01*
X297848D01*
Y378534D01*
X297796D01*
Y378794D01*
X297744D01*
Y378898D01*
X297692D01*
Y379106D01*
X297640D01*
Y379158D01*
X297588D01*
Y379314D01*
X297536D01*
Y379366D01*
X297484D01*
Y379470D01*
X297432D01*
Y379522D01*
X297380D01*
Y379626D01*
X297328D01*
Y379678D01*
X297276D01*
Y379730D01*
X297224D01*
Y379782D01*
X297173D01*
Y379834D01*
X297121D01*
Y379886D01*
X297069D01*
Y379938D01*
X297017D01*
Y379990D01*
X296965D01*
Y380042D01*
X296913D01*
Y380094D01*
X296809D01*
Y380146D01*
X296757D01*
Y380198D01*
X296705D01*
Y380250D01*
X296549D01*
Y380301D01*
X296497D01*
Y380353D01*
X296341D01*
Y380405D01*
X296185D01*
Y380457D01*
X296029D01*
Y380509D01*
X295509D01*
Y380561D01*
X293898D01*
Y380509D01*
X293222D01*
Y380457D01*
X292963D01*
Y380405D01*
X292703D01*
Y380353D01*
X292495D01*
Y380301D01*
X292339D01*
Y380250D01*
X292183D01*
Y380198D01*
X292079D01*
Y380146D01*
X291871D01*
Y380094D01*
X291767D01*
Y380042D01*
X291663D01*
Y379990D01*
X291507D01*
Y379938D01*
X291403D01*
Y379886D01*
X291247D01*
Y379834D01*
X291195D01*
Y379782D01*
X291039D01*
Y379730D01*
X290936D01*
Y379678D01*
X290832D01*
Y379626D01*
X290728D01*
Y379574D01*
X290676D01*
Y379522D01*
X290520D01*
Y379470D01*
X290416D01*
Y379418D01*
X290364D01*
Y379366D01*
X290260D01*
Y379314D01*
X290156D01*
Y379262D01*
X290052D01*
Y379210D01*
X290000D01*
Y379158D01*
X289896D01*
Y379106D01*
X289792D01*
Y379054D01*
X289740D01*
Y379002D01*
X289636D01*
Y378950D01*
X289584D01*
Y378898D01*
X289480D01*
Y378846D01*
X289428D01*
Y378794D01*
X289376D01*
Y378742D01*
X289272D01*
Y378690D01*
X289220D01*
Y378638D01*
X289116D01*
Y378586D01*
X289064D01*
Y378534D01*
X289013D01*
Y378482D01*
X288909D01*
Y378430D01*
X288857D01*
Y378378D01*
X288753D01*
Y378326D01*
X288701D01*
Y378274D01*
X288545D01*
Y378742D01*
X288493D01*
Y380665D01*
X288545D01*
Y383316D01*
X288597D01*
Y383368D01*
X288649D01*
Y383420D01*
X288701D01*
Y383472D01*
X288805D01*
Y383524D01*
X288961D01*
Y383576D01*
X289013D01*
Y383628D01*
X289168D01*
Y383680D01*
X289220D01*
Y383732D01*
X289376D01*
Y383784D01*
X289428D01*
Y383836D01*
X289532D01*
Y383888D01*
X289688D01*
Y383940D01*
X289792D01*
Y383992D01*
X289948D01*
Y384044D01*
X290000D01*
Y384096D01*
X290104D01*
Y384148D01*
X290260D01*
Y384200D01*
X290364D01*
Y384252D01*
X290520D01*
Y384303D01*
X290624D01*
Y384355D01*
X290832D01*
Y384407D01*
X290936D01*
Y384459D01*
X291091D01*
Y384511D01*
X291299D01*
Y384563D01*
X291403D01*
Y384615D01*
X291663D01*
Y384667D01*
X291819D01*
Y384719D01*
X292027D01*
Y384771D01*
X292287D01*
Y384823D01*
X292495D01*
Y384875D01*
X292859D01*
Y384927D01*
X293119D01*
Y384979D01*
X293638D01*
Y385031D01*
X294418D01*
Y385083D01*
X294990D01*
Y385031D01*
D02*
G37*
G36*
X320094Y384719D02*
X320198D01*
Y383836D01*
X320250D01*
Y382381D01*
X320302D01*
Y380717D01*
X320353D01*
Y373805D01*
X320405D01*
Y360707D01*
X320302D01*
Y360655D01*
X320250D01*
Y360707D01*
X318274D01*
Y360759D01*
X316559D01*
Y360811D01*
X309439D01*
Y360863D01*
X304969D01*
Y360915D01*
X304865D01*
Y360863D01*
X304761D01*
Y360915D01*
X304709D01*
Y360967D01*
X304657D01*
Y361383D01*
Y361435D01*
Y365281D01*
X304709D01*
Y365385D01*
X310634D01*
Y365437D01*
X315052D01*
Y370530D01*
X311154D01*
Y370582D01*
X306320D01*
Y370634D01*
X305956D01*
Y370582D01*
X305904D01*
Y370634D01*
X305800D01*
Y371778D01*
X305748D01*
Y374064D01*
X305697D01*
Y375000D01*
X305904D01*
Y375052D01*
X306008D01*
Y375000D01*
X314740D01*
Y375052D01*
X314844D01*
Y375000D01*
X315000D01*
Y375052D01*
X315052D01*
Y380146D01*
X310062D01*
Y380094D01*
X304865D01*
Y380146D01*
X304813D01*
Y384667D01*
X304865D01*
Y384719D01*
X310322D01*
Y384771D01*
X320094D01*
Y384719D01*
D02*
G37*
G36*
X330748Y384927D02*
X331320D01*
Y384875D01*
X331944D01*
Y384823D01*
X332204D01*
Y384771D01*
X332516D01*
Y384719D01*
X332775D01*
Y384667D01*
X332931D01*
Y384615D01*
X333191D01*
Y384563D01*
X333295D01*
Y384511D01*
X333503D01*
Y384459D01*
X333659D01*
Y384407D01*
X333763D01*
Y384355D01*
X333971D01*
Y384303D01*
X334075D01*
Y384252D01*
X334283D01*
Y384200D01*
X334335D01*
Y384148D01*
X334491D01*
Y384096D01*
X334647D01*
Y384044D01*
X334751D01*
Y383992D01*
X334906D01*
Y383940D01*
X334958D01*
Y383888D01*
X335114D01*
Y383836D01*
X335166D01*
Y383784D01*
X335270D01*
Y383732D01*
X335426D01*
Y383680D01*
X335530D01*
Y383628D01*
X335634D01*
Y383576D01*
X335686D01*
Y383524D01*
X335790D01*
Y383472D01*
X335894D01*
Y383420D01*
X335998D01*
Y383368D01*
X336102D01*
Y383316D01*
X336154D01*
Y383264D01*
X336258D01*
Y383212D01*
X336362D01*
Y383160D01*
X336414D01*
Y383108D01*
X336518D01*
Y383056D01*
X336570D01*
Y383004D01*
X336674D01*
Y382952D01*
X336726D01*
Y382900D01*
X336829D01*
Y382848D01*
X336881D01*
Y382796D01*
X336933D01*
Y382744D01*
X337037D01*
Y382692D01*
X337089D01*
Y382640D01*
X337193D01*
Y382588D01*
X337245D01*
Y382536D01*
X337297D01*
Y382484D01*
X337349D01*
Y382432D01*
X337401D01*
Y382381D01*
X337505D01*
Y382329D01*
X337557D01*
Y382277D01*
X337609D01*
Y382224D01*
X337713D01*
Y382121D01*
X337817D01*
Y382069D01*
X337869D01*
Y382017D01*
X337921D01*
Y381965D01*
X337973D01*
Y381913D01*
X338025D01*
Y381861D01*
X338077D01*
Y381809D01*
X338129D01*
Y381757D01*
X338181D01*
Y381705D01*
X338233D01*
Y381653D01*
X338285D01*
Y381601D01*
X338337D01*
Y381549D01*
X338389D01*
Y381497D01*
X338441D01*
Y381445D01*
X338493D01*
Y381393D01*
X338545D01*
Y381341D01*
X338597D01*
Y381289D01*
X338649D01*
Y381237D01*
X338701D01*
Y381185D01*
X338753D01*
Y381081D01*
X338805D01*
Y381029D01*
X338857D01*
Y380977D01*
X338909D01*
Y380925D01*
X338961D01*
Y380821D01*
X339013D01*
Y380769D01*
X339064D01*
Y380717D01*
X339116D01*
Y380665D01*
X339168D01*
Y380613D01*
X339220D01*
Y380509D01*
X339272D01*
Y380457D01*
X339324D01*
Y380405D01*
X339376D01*
Y380301D01*
X339428D01*
Y380250D01*
X339480D01*
Y380146D01*
X339532D01*
Y380094D01*
X339584D01*
Y379990D01*
X339636D01*
Y379938D01*
X339688D01*
Y379886D01*
X339740D01*
Y379782D01*
X339792D01*
Y379730D01*
X339844D01*
Y379626D01*
X339896D01*
Y379522D01*
X339948D01*
Y379418D01*
X340000D01*
Y379314D01*
X340052D01*
Y379262D01*
X340104D01*
Y379158D01*
X340156D01*
Y379106D01*
X340208D01*
Y379002D01*
X340260D01*
Y378898D01*
X340312D01*
Y378794D01*
X340364D01*
Y378638D01*
X340416D01*
Y378586D01*
X340468D01*
Y378430D01*
X340520D01*
Y378326D01*
X340572D01*
Y378222D01*
X340624D01*
Y378118D01*
X340676D01*
Y378015D01*
X340728D01*
Y377859D01*
X340780D01*
Y377755D01*
X340832D01*
Y377599D01*
X340884D01*
Y377443D01*
X340936D01*
Y377339D01*
X340987D01*
Y377131D01*
X341039D01*
Y377027D01*
X341091D01*
Y376819D01*
X341143D01*
Y376663D01*
X341195D01*
Y376507D01*
X341247D01*
Y376299D01*
X341299D01*
Y376143D01*
X341351D01*
Y375832D01*
X341403D01*
Y375676D01*
X341455D01*
Y375364D01*
X341507D01*
Y375052D01*
X341559D01*
Y374844D01*
X341611D01*
Y374272D01*
X341663D01*
Y373908D01*
X341715D01*
Y371414D01*
X341663D01*
Y371050D01*
X341611D01*
Y370530D01*
X341559D01*
Y370270D01*
X341507D01*
Y369958D01*
X341455D01*
Y369647D01*
X341403D01*
Y369491D01*
X341351D01*
Y369231D01*
X341299D01*
Y369075D01*
X341247D01*
Y368867D01*
X341195D01*
Y368659D01*
X341143D01*
Y368503D01*
X341091D01*
Y368295D01*
X341039D01*
Y368191D01*
X340987D01*
Y367983D01*
X340936D01*
Y367879D01*
X340884D01*
Y367776D01*
X340832D01*
Y367619D01*
X340780D01*
Y367516D01*
X340728D01*
Y367360D01*
X340676D01*
Y367256D01*
X340624D01*
Y367152D01*
X340572D01*
Y366996D01*
X340520D01*
Y366892D01*
X340468D01*
Y366736D01*
X340416D01*
Y366684D01*
X340364D01*
Y366580D01*
X340312D01*
Y366476D01*
X340260D01*
Y366372D01*
X340208D01*
Y366268D01*
X340156D01*
Y366216D01*
X340104D01*
Y366060D01*
X340052D01*
Y366008D01*
X340000D01*
Y365904D01*
X339948D01*
Y365800D01*
X339896D01*
Y365748D01*
X339844D01*
Y365645D01*
X339792D01*
Y365593D01*
X339740D01*
Y365489D01*
X339688D01*
Y365437D01*
X339636D01*
Y365333D01*
X339584D01*
Y365229D01*
X339532D01*
Y365177D01*
X339480D01*
Y365073D01*
X339428D01*
Y365021D01*
X339376D01*
Y364969D01*
X339324D01*
Y364917D01*
X339272D01*
Y364813D01*
X339220D01*
Y364761D01*
X339168D01*
Y364709D01*
X339116D01*
Y364605D01*
X339064D01*
Y364553D01*
X339013D01*
Y364501D01*
X338961D01*
Y364449D01*
X338909D01*
Y364397D01*
X338857D01*
Y364293D01*
X338805D01*
Y364241D01*
X338753D01*
Y364189D01*
X338701D01*
Y364137D01*
X338649D01*
Y364085D01*
X338597D01*
Y364033D01*
X338545D01*
Y363981D01*
X338493D01*
Y363877D01*
X338441D01*
Y363825D01*
X338389D01*
Y363773D01*
X338337D01*
Y363721D01*
X338285D01*
Y363669D01*
X338233D01*
Y363617D01*
X338181D01*
Y363565D01*
X338129D01*
Y363513D01*
X338077D01*
Y363461D01*
X338025D01*
Y363410D01*
X337921D01*
Y363358D01*
X337869D01*
Y363306D01*
X337817D01*
Y363254D01*
X337765D01*
Y363202D01*
X337713D01*
Y363150D01*
X337661D01*
Y363098D01*
X337609D01*
Y363046D01*
X337505D01*
Y362994D01*
X337453D01*
Y362942D01*
X337401D01*
Y362890D01*
X337349D01*
Y362838D01*
X337297D01*
Y362786D01*
X337193D01*
Y362734D01*
X337141D01*
Y362682D01*
X337037D01*
Y362630D01*
X336985D01*
Y362578D01*
X336933D01*
Y362526D01*
X336829D01*
Y362474D01*
X336777D01*
Y362422D01*
X336674D01*
Y362370D01*
X336622D01*
Y362318D01*
X336570D01*
Y362266D01*
X336466D01*
Y362214D01*
X336414D01*
Y362162D01*
X336310D01*
Y362110D01*
X336258D01*
Y362058D01*
X336154D01*
Y362006D01*
X336050D01*
Y361954D01*
X335946D01*
Y361902D01*
X335842D01*
Y361850D01*
X335790D01*
Y361798D01*
X335634D01*
Y361746D01*
X335582D01*
Y361694D01*
X335478D01*
Y361642D01*
X335374D01*
Y361590D01*
X335270D01*
Y361539D01*
X335114D01*
Y361487D01*
X335062D01*
Y361435D01*
X334906D01*
Y361383D01*
X334803D01*
Y361331D01*
X334699D01*
Y361279D01*
X334543D01*
Y361227D01*
X334439D01*
Y361175D01*
X334231D01*
Y361123D01*
X334179D01*
Y361071D01*
X333919D01*
Y361019D01*
X333815D01*
Y360967D01*
X333659D01*
Y360915D01*
X333451D01*
Y360863D01*
X333295D01*
Y360811D01*
X333035D01*
Y360759D01*
X332879D01*
Y360707D01*
X332568D01*
Y360655D01*
X332256D01*
Y360603D01*
X331996D01*
Y360551D01*
X331528D01*
Y360499D01*
X331164D01*
Y360447D01*
X330385D01*
Y360395D01*
X328150D01*
Y360447D01*
X327266D01*
Y360499D01*
X327006D01*
Y360551D01*
X326486D01*
Y360603D01*
X326279D01*
Y360655D01*
X326019D01*
Y360707D01*
X325759D01*
Y360759D01*
X325603D01*
Y360811D01*
X325395D01*
Y360863D01*
X325239D01*
Y360915D01*
X325031D01*
Y360967D01*
X324875D01*
Y361019D01*
X324771D01*
Y361071D01*
X324563D01*
Y361123D01*
X324460D01*
Y361175D01*
X324304D01*
Y361227D01*
X324200D01*
Y361279D01*
X324044D01*
Y361331D01*
X323888D01*
Y361383D01*
X323836D01*
Y361435D01*
X323628D01*
Y361487D01*
X323576D01*
Y361539D01*
X323420D01*
Y361590D01*
X323316D01*
Y361642D01*
X323264D01*
Y361694D01*
X323108D01*
Y361746D01*
X323056D01*
Y361798D01*
X322900D01*
Y361850D01*
X322796D01*
Y361902D01*
X322692D01*
Y361954D01*
X322588D01*
Y362006D01*
X322536D01*
Y362058D01*
X322484D01*
Y362942D01*
X322432D01*
Y367360D01*
X322484D01*
Y367412D01*
X322640D01*
Y367360D01*
X322692D01*
Y367308D01*
X322796D01*
Y367256D01*
X322848D01*
Y367204D01*
X322900D01*
Y367152D01*
X323004D01*
Y367100D01*
X323056D01*
Y367048D01*
X323160D01*
Y366996D01*
X323212D01*
Y366944D01*
X323316D01*
Y366892D01*
X323420D01*
Y366840D01*
X323472D01*
Y366788D01*
X323576D01*
Y366736D01*
X323628D01*
Y366684D01*
X323732D01*
Y366632D01*
X323784D01*
Y366580D01*
X323836D01*
Y366528D01*
X323940D01*
Y366476D01*
X324044D01*
Y366424D01*
X324148D01*
Y366372D01*
X324200D01*
Y366320D01*
X324304D01*
Y366268D01*
X324408D01*
Y366216D01*
X324460D01*
Y366164D01*
X324615D01*
Y366112D01*
X324667D01*
Y366060D01*
X324771D01*
Y366008D01*
X324875D01*
Y365956D01*
X324979D01*
Y365904D01*
X325135D01*
Y365852D01*
X325187D01*
Y365800D01*
X325343D01*
Y365748D01*
X325447D01*
Y365697D01*
X325603D01*
Y365645D01*
X325759D01*
Y365593D01*
X325863D01*
Y365541D01*
X326071D01*
Y365489D01*
X326175D01*
Y365437D01*
X326434D01*
Y365385D01*
X326590D01*
Y365333D01*
X326746D01*
Y365281D01*
X327110D01*
Y365229D01*
X327266D01*
Y365177D01*
X327786D01*
Y365125D01*
X328150D01*
Y365073D01*
X329813D01*
Y365125D01*
X330177D01*
Y365177D01*
X330644D01*
Y365229D01*
X330852D01*
Y365281D01*
X331164D01*
Y365333D01*
X331320D01*
Y365385D01*
X331476D01*
Y365437D01*
X331684D01*
Y365489D01*
X331788D01*
Y365541D01*
X331996D01*
Y365593D01*
X332048D01*
Y365645D01*
X332204D01*
Y365697D01*
X332360D01*
Y365748D01*
X332412D01*
Y365800D01*
X332568D01*
Y365852D01*
X332620D01*
Y365904D01*
X332775D01*
Y365956D01*
X332827D01*
Y366008D01*
X332931D01*
Y366060D01*
X333035D01*
Y366112D01*
X333087D01*
Y366164D01*
X333191D01*
Y366216D01*
X333243D01*
Y366268D01*
X333347D01*
Y366320D01*
X333451D01*
Y366372D01*
X333503D01*
Y366424D01*
X333555D01*
Y366476D01*
X333607D01*
Y366528D01*
X333711D01*
Y366580D01*
X333763D01*
Y366632D01*
X333815D01*
Y366684D01*
X333867D01*
Y366736D01*
X333919D01*
Y366788D01*
X334023D01*
Y366840D01*
X334075D01*
Y366892D01*
X334127D01*
Y366944D01*
X334179D01*
Y366996D01*
X334231D01*
Y367048D01*
X334283D01*
Y367100D01*
X334335D01*
Y367152D01*
X334387D01*
Y367204D01*
X334439D01*
Y367256D01*
X334491D01*
Y367360D01*
X334543D01*
Y367412D01*
X334595D01*
Y367464D01*
X334647D01*
Y367516D01*
X334699D01*
Y367568D01*
X334751D01*
Y367671D01*
X334803D01*
Y367723D01*
X334855D01*
Y367776D01*
X334906D01*
Y367879D01*
X334958D01*
Y367931D01*
X335010D01*
Y368035D01*
X335062D01*
Y368087D01*
X335114D01*
Y368191D01*
X335166D01*
Y368243D01*
X335218D01*
Y368347D01*
X335270D01*
Y368451D01*
X335322D01*
Y368503D01*
X335374D01*
Y368607D01*
X335426D01*
Y368711D01*
X335478D01*
Y368815D01*
X335530D01*
Y368919D01*
X335582D01*
Y369023D01*
X335634D01*
Y369179D01*
X335686D01*
Y369231D01*
X335738D01*
Y369439D01*
X335790D01*
Y369491D01*
X335842D01*
Y369647D01*
X335894D01*
Y369802D01*
X335946D01*
Y369958D01*
X335998D01*
Y370166D01*
X336050D01*
Y370270D01*
X336102D01*
Y370530D01*
X336154D01*
Y370738D01*
X336206D01*
Y370998D01*
X336258D01*
Y371414D01*
X336310D01*
Y371622D01*
X336362D01*
Y373649D01*
X336310D01*
Y374012D01*
X336258D01*
Y374376D01*
X336206D01*
Y374636D01*
X336154D01*
Y374844D01*
X336102D01*
Y375104D01*
X336050D01*
Y375208D01*
X335998D01*
Y375416D01*
X335946D01*
Y375572D01*
X335894D01*
Y375728D01*
X335842D01*
Y375884D01*
X335790D01*
Y375988D01*
X335738D01*
Y376143D01*
X335686D01*
Y376195D01*
X335634D01*
Y376351D01*
X335582D01*
Y376455D01*
X335530D01*
Y376559D01*
X335478D01*
Y376663D01*
X335426D01*
Y376767D01*
X335374D01*
Y376871D01*
X335322D01*
Y376923D01*
X335270D01*
Y377027D01*
X335218D01*
Y377131D01*
X335166D01*
Y377183D01*
X335114D01*
Y377287D01*
X335062D01*
Y377339D01*
X335010D01*
Y377443D01*
X334958D01*
Y377547D01*
X334906D01*
Y377599D01*
X334855D01*
Y377651D01*
X334803D01*
Y377703D01*
X334751D01*
Y377807D01*
X334699D01*
Y377859D01*
X334647D01*
Y377911D01*
X334595D01*
Y378015D01*
X334543D01*
Y378066D01*
X334491D01*
Y378118D01*
X334439D01*
Y378170D01*
X334387D01*
Y378222D01*
X334335D01*
Y378274D01*
X334283D01*
Y378326D01*
X334231D01*
Y378378D01*
X334179D01*
Y378430D01*
X334127D01*
Y378482D01*
X334075D01*
Y378534D01*
X334023D01*
Y378586D01*
X333971D01*
Y378638D01*
X333919D01*
Y378690D01*
X333867D01*
Y378742D01*
X333815D01*
Y378794D01*
X333763D01*
Y378846D01*
X333659D01*
Y378898D01*
X333607D01*
Y378950D01*
X333555D01*
Y379002D01*
X333451D01*
Y379054D01*
X333399D01*
Y379106D01*
X333347D01*
Y379158D01*
X333243D01*
Y379210D01*
X333191D01*
Y379262D01*
X333139D01*
Y379314D01*
X333087D01*
Y379366D01*
X332931D01*
Y379418D01*
X332879D01*
Y379470D01*
X332827D01*
Y379522D01*
X332723D01*
Y379574D01*
X332620D01*
Y379626D01*
X332516D01*
Y379678D01*
X332412D01*
Y379730D01*
X332308D01*
Y379782D01*
X332152D01*
Y379834D01*
X332100D01*
Y379886D01*
X331892D01*
Y379938D01*
X331788D01*
Y379990D01*
X331580D01*
Y380042D01*
X331424D01*
Y380094D01*
X331216D01*
Y380146D01*
X330904D01*
Y380198D01*
X330697D01*
Y380250D01*
X329969D01*
Y380301D01*
X328618D01*
Y380250D01*
X327838D01*
Y380198D01*
X327578D01*
Y380146D01*
X327214D01*
Y380094D01*
X327006D01*
Y380042D01*
X326850D01*
Y379990D01*
X326590D01*
Y379938D01*
X326486D01*
Y379886D01*
X326227D01*
Y379834D01*
X326123D01*
Y379782D01*
X325967D01*
Y379730D01*
X325811D01*
Y379678D01*
X325707D01*
Y379626D01*
X325551D01*
Y379574D01*
X325447D01*
Y379522D01*
X325291D01*
Y379470D01*
X325239D01*
Y379418D01*
X325135D01*
Y379366D01*
X324979D01*
Y379314D01*
X324927D01*
Y379262D01*
X324771D01*
Y379210D01*
X324719D01*
Y379158D01*
X324615D01*
Y379106D01*
X324511D01*
Y379054D01*
X324460D01*
Y379002D01*
X324356D01*
Y378950D01*
X324304D01*
Y378898D01*
X324200D01*
Y378846D01*
X324148D01*
Y378794D01*
X324044D01*
Y378742D01*
X323992D01*
Y378690D01*
X323940D01*
Y378638D01*
X323836D01*
Y378586D01*
X323784D01*
Y378534D01*
X323680D01*
Y378482D01*
X323628D01*
Y378430D01*
X323524D01*
Y378378D01*
X323472D01*
Y378326D01*
X323420D01*
Y378274D01*
X323316D01*
Y378222D01*
X323264D01*
Y378170D01*
X323212D01*
Y378118D01*
X323108D01*
Y378066D01*
X323056D01*
Y378015D01*
X322848D01*
Y378222D01*
X322796D01*
Y382017D01*
X322848D01*
Y383472D01*
X322900D01*
Y383524D01*
X322952D01*
Y383576D01*
X323056D01*
Y383628D01*
X323212D01*
Y383680D01*
X323264D01*
Y383732D01*
X323420D01*
Y383784D01*
X323524D01*
Y383836D01*
X323628D01*
Y383888D01*
X323732D01*
Y383940D01*
X323836D01*
Y383992D01*
X323992D01*
Y384044D01*
X324044D01*
Y384096D01*
X324148D01*
Y384148D01*
X324304D01*
Y384200D01*
X324408D01*
Y384252D01*
X324563D01*
Y384303D01*
X324667D01*
Y384355D01*
X324823D01*
Y384407D01*
X324979D01*
Y384459D01*
X325135D01*
Y384511D01*
X325343D01*
Y384563D01*
X325447D01*
Y384615D01*
X325759D01*
Y384667D01*
X325915D01*
Y384719D01*
X326175D01*
Y384771D01*
X326486D01*
Y384823D01*
X326746D01*
Y384875D01*
X327474D01*
Y384927D01*
X328046D01*
Y384979D01*
X330748D01*
Y384927D01*
D02*
G37*
%LPC*%
G36*
X286518Y384563D02*
X286362D01*
Y384511D01*
X286310D01*
Y384459D01*
X286258D01*
Y384303D01*
X286310D01*
Y384252D01*
X286362D01*
Y384200D01*
X286518D01*
Y384252D01*
X286570D01*
Y384303D01*
X286622D01*
Y384459D01*
X286570D01*
Y384511D01*
X286518D01*
Y384563D01*
D02*
G37*
G36*
X286570Y385083D02*
X286310D01*
Y385031D01*
X286154D01*
Y384979D01*
X285998D01*
Y384927D01*
X285946D01*
Y384875D01*
X285894D01*
Y384823D01*
X285842D01*
Y384771D01*
X285790D01*
Y384719D01*
X285738D01*
Y384615D01*
X285686D01*
Y384563D01*
X285634D01*
Y384407D01*
X285582D01*
Y383888D01*
X285634D01*
Y383732D01*
X285686D01*
Y383628D01*
X285738D01*
Y383524D01*
X285790D01*
Y383472D01*
X285842D01*
Y383420D01*
X285894D01*
Y383368D01*
X285998D01*
Y383316D01*
X286050D01*
Y383264D01*
X286258D01*
Y383212D01*
X286570D01*
Y383264D01*
X286777D01*
Y383316D01*
X286829D01*
Y383368D01*
X286933D01*
Y383420D01*
X286985D01*
Y383472D01*
X287037D01*
Y383524D01*
X287089D01*
Y383576D01*
X287141D01*
Y383628D01*
X287193D01*
Y383680D01*
X287245D01*
Y383784D01*
X287297D01*
Y383888D01*
X287349D01*
Y384407D01*
X287297D01*
Y384459D01*
X287245D01*
Y384563D01*
X287193D01*
Y384615D01*
X287141D01*
Y384719D01*
X286985D01*
Y383628D01*
X286933D01*
Y383524D01*
X286881D01*
Y383472D01*
X286726D01*
Y383524D01*
X286674D01*
Y383576D01*
X286622D01*
Y383836D01*
X286570D01*
Y383888D01*
X286518D01*
Y383940D01*
X286362D01*
Y383888D01*
X286310D01*
Y383836D01*
X286258D01*
Y383628D01*
X286206D01*
Y383524D01*
X286154D01*
Y383472D01*
X285998D01*
Y383576D01*
X285946D01*
Y384355D01*
X285998D01*
Y384615D01*
X286050D01*
Y384667D01*
X286102D01*
Y384719D01*
X286154D01*
Y384771D01*
X286310D01*
Y384823D01*
X286829D01*
Y384875D01*
X286881D01*
Y384927D01*
X286829D01*
Y384979D01*
X286726D01*
Y385031D01*
X286570D01*
Y385083D01*
D02*
G37*
%LPD*%
D10*
X316665Y332500D02*
X319331D01*
X316665Y335166D01*
Y335832D01*
X317332Y336499D01*
X318665D01*
X319331Y335832D01*
X315332D02*
X314666Y336499D01*
X313333D01*
X312666Y335832D01*
Y333166D01*
X313333Y332500D01*
X314666D01*
X315332Y333166D01*
Y335832D01*
X308668Y332500D02*
X311333D01*
X308668Y335166D01*
Y335832D01*
X309334Y336499D01*
X310667D01*
X311333Y335832D01*
X304669Y332500D02*
X307335D01*
X304669Y335166D01*
Y335832D01*
X305335Y336499D01*
X306668D01*
X307335Y335832D01*
X322559Y412288D02*
G03*
X325355Y411635I1299J-750D01*
G01*
X318519Y412943D02*
G03*
X329230Y410268I5339J-1405D01*
G01*
X320462Y412388D02*
G03*
X327253Y410688I3395J-850D01*
G01*
X343788Y400941D02*
G03*
X345883Y398977I750J-1299D01*
G01*
X340617Y403529D02*
G03*
X348556Y395856I3921J-3886D01*
G01*
X342023Y402076D02*
G03*
X347054Y397209I2515J-2434D01*
G01*
X356500Y380500D02*
G03*
X357332Y377752I0J-1500D01*
G01*
X355047Y384326D02*
G03*
X358086Y373712I1453J-5326D01*
G01*
X355539Y382365D02*
G03*
X357462Y375635I962J-3365D01*
G01*
X357288Y356441D02*
G03*
X356635Y353645I-750J-1299D01*
G01*
X357943Y360481D02*
G03*
X355268Y349770I-1405J-5339D01*
G01*
X357388Y358538D02*
G03*
X355688Y351747I-850J-3395D01*
G01*
X345941Y335212D02*
G03*
X343977Y333117I-1299J-750D01*
G01*
X348529Y338383D02*
G03*
X340856Y330444I-3886J-3921D01*
G01*
X347076Y336977D02*
G03*
X342209Y331946I-2434J-2515D01*
G01*
X325500Y322500D02*
G03*
X322752Y321668I-1500J0D01*
G01*
X329326Y323953D02*
G03*
X318712Y320914I-5326J-1453D01*
G01*
X327365Y323462D02*
G03*
X320635Y321538I-3365J-962D01*
G01*
X301441Y321712D02*
G03*
X298645Y322365I-1299J750D01*
G01*
X305481Y321057D02*
G03*
X294770Y323732I-5339J1405D01*
G01*
X303538Y321612D02*
G03*
X296747Y323312I-3395J850D01*
G01*
X280212Y333059D02*
G03*
X278117Y335022I-750J1299D01*
G01*
X283383Y330471D02*
G03*
X275444Y338144I-3921J3886D01*
G01*
X281977Y331924D02*
G03*
X276946Y336791I-2515J2434D01*
G01*
X267500Y353500D02*
G03*
X266668Y356248I0J1500D01*
G01*
X268953Y349674D02*
G03*
X265914Y360288I-1453J5326D01*
G01*
X268461Y351635D02*
G03*
X266539Y358365I-962J3365D01*
G01*
X266712Y377559D02*
G03*
X267365Y380355I750J1299D01*
G01*
X266057Y373519D02*
G03*
X268732Y384230I1405J5339D01*
G01*
X266612Y375463D02*
G03*
X268312Y382253I850J3395D01*
G01*
X278059Y398788D02*
G03*
X280023Y400883I1299J750D01*
G01*
X275471Y395617D02*
G03*
X283144Y403556I3886J3921D01*
G01*
X276924Y397023D02*
G03*
X281791Y402053I2434J2515D01*
G01*
X296635Y410538D02*
G03*
X303365Y412462I3365J962D01*
G01*
X294674Y410047D02*
G03*
X305288Y413086I5326J1453D01*
G01*
X298500Y411500D02*
G03*
X301248Y412332I1500J0D01*
G01*
X332549Y399592D02*
G03*
X329951Y401092I-1299J750D01*
G01*
X334281Y398592D02*
G03*
X328219Y402092I-3031J1750D01*
G01*
X335785Y397194D02*
G03*
X326226Y402632I-4535J3148D01*
G01*
X346092Y384951D02*
G03*
X344592Y387549I-750J1299D01*
G01*
X347092Y383219D02*
G03*
X343592Y389281I-1750J3031D01*
G01*
X347696Y381256D02*
G03*
X342136Y390745I-2354J4994D01*
G01*
X350500Y365500D02*
G03*
X350500Y368500I0J1500D01*
G01*
Y363500D02*
G03*
X350500Y370500I0J3500D01*
G01*
X350042Y361498D02*
G03*
X349971Y372495I459J5502D01*
G01*
X344592Y346451D02*
G03*
X346092Y349049I750J1299D01*
G01*
X343592Y344719D02*
G03*
X347092Y350781I1750J3031D01*
G01*
X342194Y343215D02*
G03*
X347632Y352773I3148J4535D01*
G01*
X329951Y332908D02*
G03*
X332549Y334408I1299J750D01*
G01*
X328219Y331908D02*
G03*
X334281Y335408I3031J1750D01*
G01*
X326256Y331304D02*
G03*
X335745Y336864I4994J2354D01*
G01*
X310500Y328500D02*
G03*
X313500Y328500I1500J0D01*
G01*
X308500D02*
G03*
X315500Y328500I3500J0D01*
G01*
X306498Y328959D02*
G03*
X317495Y329029I5502J-459D01*
G01*
X291451Y334408D02*
G03*
X294049Y332908I1299J-750D01*
G01*
X289719Y335408D02*
G03*
X295781Y331908I3031J-1750D01*
G01*
X288215Y336806D02*
G03*
X297774Y331368I4535J-3148D01*
G01*
X277908Y349049D02*
G03*
X279408Y346451I750J-1299D01*
G01*
X276908Y350781D02*
G03*
X280408Y344719I1750J-3031D01*
G01*
X276304Y352744D02*
G03*
X281864Y343255I2354J-4994D01*
G01*
X273500Y368500D02*
G03*
X273500Y365500I0J-1500D01*
G01*
Y370500D02*
G03*
X273500Y363500I0J-3500D01*
G01*
X273958Y372502D02*
G03*
X274029Y361505I-459J-5502D01*
G01*
X279408Y387549D02*
G03*
X277908Y384951I-750J-1299D01*
G01*
X280408Y389281D02*
G03*
X276908Y383219I-1750J-3031D01*
G01*
X281806Y390785D02*
G03*
X276368Y381226I-3148J-4535D01*
G01*
X294049Y401092D02*
G03*
X291451Y399592I-1299J-750D01*
G01*
X295781Y402092D02*
G03*
X289719Y398592I-3031J-1750D01*
G01*
X297744Y402696D02*
G03*
X288255Y397136I-4994J-2354D01*
G01*
X313500Y405500D02*
G03*
X310500Y405500I-1500J0D01*
G01*
X315500D02*
G03*
X308500Y405500I-3500J0D01*
G01*
X317502Y405042D02*
G03*
X306505Y404971I-5502J459D01*
G01*
D11*
X285000Y394500D02*
D03*
D13*
X350000Y367000D02*
G03*
X350000Y367000I-38000J0D01*
G01*
D14*
X360127D02*
G03*
X360127Y367000I-48127J0D01*
G01*
M02*
