G04*
G04 #@! TF.GenerationSoftware,Altium Limited,Altium Designer,21.7.2 (23)*
G04*
G04 Layer_Color=32896*
%FSLAX25Y25*%
%MOIN*%
G70*
G04*
G04 #@! TF.SameCoordinates,B87F5D9A-147D-4DEB-93F1-AF521ED98CA3*
G04*
G04*
G04 #@! TF.FilePolarity,Positive*
G04*
G01*
G75*
%ADD10C,0.01000*%
G36*
X301776Y354602D02*
X302041Y354553D01*
X302281Y354481D01*
X302486Y354409D01*
X302654Y354337D01*
X302775Y354265D01*
X302823Y354240D01*
X302859Y354217D01*
X302871Y354205D01*
X302883D01*
X303087Y354048D01*
X303268Y353856D01*
X303424Y353675D01*
X303556Y353495D01*
X303653Y353326D01*
X303725Y353194D01*
X303749Y353146D01*
X303773Y353110D01*
X303785Y353086D01*
Y353074D01*
X303893Y352797D01*
X303965Y352520D01*
X304026Y352256D01*
X304062Y352015D01*
X304086Y351799D01*
Y351714D01*
X304098Y351630D01*
Y351570D01*
Y351522D01*
Y351498D01*
Y351486D01*
X304086Y351257D01*
X304074Y351028D01*
X303990Y350620D01*
X303941Y350427D01*
X303881Y350259D01*
X303821Y350090D01*
X303761Y349946D01*
X303701Y349801D01*
X303641Y349681D01*
X303580Y349585D01*
X303532Y349489D01*
X303484Y349429D01*
X303448Y349368D01*
X303436Y349344D01*
X303424Y349332D01*
X303292Y349176D01*
X303147Y349044D01*
X302991Y348923D01*
X302835Y348815D01*
X302666Y348731D01*
X302510Y348659D01*
X302354Y348599D01*
X302197Y348550D01*
X302053Y348514D01*
X301920Y348490D01*
X301800Y348466D01*
X301692Y348454D01*
X301608D01*
X301547Y348442D01*
X301487D01*
X301307Y348454D01*
X301126Y348478D01*
X300958Y348514D01*
X300802Y348562D01*
X300525Y348695D01*
X300272Y348839D01*
X300176Y348911D01*
X300080Y348983D01*
X299996Y349056D01*
X299935Y349116D01*
X299887Y349164D01*
X299851Y349200D01*
X299827Y349224D01*
X299815Y349236D01*
Y349056D01*
Y348899D01*
X299827Y348743D01*
Y348610D01*
Y348490D01*
X299839Y348382D01*
Y348286D01*
X299851Y348201D01*
X299863Y348081D01*
X299875Y347985D01*
X299887Y347937D01*
Y347925D01*
X299947Y347744D01*
X300032Y347588D01*
X300116Y347456D01*
X300200Y347335D01*
X300284Y347251D01*
X300357Y347179D01*
X300405Y347143D01*
X300417Y347131D01*
X300573Y347035D01*
X300753Y346962D01*
X300934Y346914D01*
X301102Y346878D01*
X301271Y346854D01*
X301391Y346842D01*
X301511D01*
X301740Y346854D01*
X301957Y346890D01*
X302137Y346938D01*
X302281Y346999D01*
X302402Y347047D01*
X302486Y347095D01*
X302534Y347131D01*
X302558Y347143D01*
X302654Y347227D01*
X302726Y347335D01*
X302786Y347444D01*
X302835Y347552D01*
X302859Y347660D01*
X302883Y347744D01*
X302895Y347793D01*
Y347816D01*
X303893Y347949D01*
Y347768D01*
X303869Y347612D01*
X303845Y347456D01*
X303809Y347311D01*
X303701Y347059D01*
X303580Y346854D01*
X303460Y346698D01*
X303364Y346589D01*
X303280Y346517D01*
X303268Y346505D01*
X303256Y346493D01*
X302991Y346325D01*
X302702Y346204D01*
X302414Y346120D01*
X302137Y346060D01*
X302005Y346036D01*
X301884Y346024D01*
X301788Y346012D01*
X301692D01*
X301620Y346000D01*
X301511D01*
X301186Y346012D01*
X300886Y346060D01*
X300621Y346108D01*
X300405Y346181D01*
X300224Y346241D01*
X300152Y346265D01*
X300092Y346301D01*
X300044Y346313D01*
X300008Y346337D01*
X299996Y346349D01*
X299984D01*
X299767Y346481D01*
X299574Y346638D01*
X299418Y346794D01*
X299286Y346938D01*
X299190Y347071D01*
X299129Y347179D01*
X299081Y347251D01*
X299069Y347263D01*
Y347275D01*
X299021Y347395D01*
X298973Y347528D01*
X298937Y347672D01*
X298901Y347829D01*
X298853Y348165D01*
X298817Y348490D01*
X298805Y348647D01*
X298793Y348791D01*
Y348923D01*
X298780Y349032D01*
Y349128D01*
Y349200D01*
Y349248D01*
Y349260D01*
Y354481D01*
X299719D01*
Y353735D01*
X299851Y353892D01*
X299996Y354024D01*
X300140Y354144D01*
X300284Y354240D01*
X300441Y354325D01*
X300585Y354397D01*
X300729Y354457D01*
X300862Y354505D01*
X300994Y354541D01*
X301114Y354565D01*
X301223Y354589D01*
X301307Y354602D01*
X301379Y354613D01*
X301487D01*
X301776Y354602D01*
D02*
G37*
G36*
X331201D02*
X331454Y354577D01*
X331695Y354541D01*
X331887Y354505D01*
X332055Y354469D01*
X332176Y354433D01*
X332224Y354421D01*
X332260Y354409D01*
X332272Y354397D01*
X332284D01*
X332489Y354313D01*
X332669Y354205D01*
X332825Y354108D01*
X332958Y354012D01*
X333054Y353916D01*
X333126Y353844D01*
X333174Y353795D01*
X333186Y353783D01*
X333295Y353627D01*
X333391Y353459D01*
X333463Y353290D01*
X333523Y353134D01*
X333571Y352977D01*
X333607Y352869D01*
X333619Y352821D01*
Y352785D01*
X333631Y352773D01*
Y352761D01*
X332633Y352628D01*
X332561Y352845D01*
X332489Y353038D01*
X332404Y353194D01*
X332332Y353314D01*
X332260Y353411D01*
X332200Y353471D01*
X332152Y353507D01*
X332140Y353519D01*
X331995Y353603D01*
X331827Y353663D01*
X331646Y353711D01*
X331478Y353735D01*
X331310Y353759D01*
X331189Y353771D01*
X331069D01*
X330792Y353759D01*
X330552Y353723D01*
X330359Y353663D01*
X330191Y353603D01*
X330071Y353531D01*
X329974Y353483D01*
X329914Y353434D01*
X329902Y353422D01*
X329806Y353314D01*
X329734Y353182D01*
X329674Y353038D01*
X329638Y352893D01*
X329613Y352761D01*
X329601Y352641D01*
Y352568D01*
Y352556D01*
Y352544D01*
Y352520D01*
Y352472D01*
Y352388D01*
X329613Y352316D01*
Y352292D01*
Y352280D01*
X329734Y352244D01*
X329866Y352207D01*
X330143Y352135D01*
X330455Y352075D01*
X330744Y352015D01*
X330889Y351991D01*
X331021Y351979D01*
X331141Y351955D01*
X331238Y351943D01*
X331322Y351931D01*
X331382D01*
X331430Y351919D01*
X331442D01*
X331659Y351895D01*
X331839Y351859D01*
X331995Y351835D01*
X332116Y351811D01*
X332212Y351799D01*
X332284Y351774D01*
X332332Y351762D01*
X332344D01*
X332501Y351714D01*
X332633Y351666D01*
X332765Y351606D01*
X332874Y351558D01*
X332970Y351510D01*
X333030Y351462D01*
X333078Y351438D01*
X333090Y351426D01*
X333210Y351341D01*
X333307Y351245D01*
X333403Y351149D01*
X333475Y351053D01*
X333535Y350968D01*
X333583Y350896D01*
X333607Y350848D01*
X333619Y350836D01*
X333680Y350704D01*
X333728Y350559D01*
X333764Y350427D01*
X333788Y350295D01*
X333800Y350186D01*
X333812Y350102D01*
Y350054D01*
Y350030D01*
X333800Y349886D01*
X333788Y349765D01*
X333728Y349513D01*
X333644Y349308D01*
X333547Y349128D01*
X333451Y348983D01*
X333367Y348875D01*
X333307Y348815D01*
X333283Y348791D01*
X333066Y348635D01*
X332825Y348514D01*
X332561Y348430D01*
X332320Y348370D01*
X332104Y348334D01*
X332007Y348322D01*
X331923D01*
X331851Y348310D01*
X331755D01*
X331538Y348322D01*
X331322Y348346D01*
X331129Y348370D01*
X330961Y348406D01*
X330828Y348442D01*
X330720Y348478D01*
X330648Y348490D01*
X330624Y348502D01*
X330419Y348587D01*
X330227Y348695D01*
X330047Y348815D01*
X329866Y348923D01*
X329722Y349032D01*
X329613Y349116D01*
X329541Y349176D01*
X329529Y349200D01*
X329517D01*
X329493Y349044D01*
X329469Y348899D01*
X329445Y348767D01*
X329409Y348659D01*
X329373Y348562D01*
X329349Y348502D01*
X329337Y348454D01*
X329325Y348442D01*
X328254D01*
X328314Y348574D01*
X328374Y348707D01*
X328422Y348827D01*
X328447Y348935D01*
X328483Y349032D01*
X328495Y349104D01*
X328507Y349152D01*
Y349164D01*
X328519Y349248D01*
X328531Y349356D01*
Y349477D01*
X328543Y349609D01*
X328555Y349910D01*
Y350210D01*
X328567Y350499D01*
Y350632D01*
Y350740D01*
Y350836D01*
Y350908D01*
Y350956D01*
Y350968D01*
Y352340D01*
Y352568D01*
X328579Y352773D01*
X328591Y352929D01*
Y353062D01*
X328603Y353158D01*
X328615Y353230D01*
X328627Y353266D01*
Y353278D01*
X328663Y353434D01*
X328711Y353567D01*
X328759Y353675D01*
X328819Y353783D01*
X328868Y353856D01*
X328904Y353916D01*
X328928Y353952D01*
X328940Y353964D01*
X329036Y354060D01*
X329144Y354156D01*
X329265Y354228D01*
X329385Y354301D01*
X329493Y354349D01*
X329577Y354385D01*
X329638Y354409D01*
X329661Y354421D01*
X329854Y354481D01*
X330059Y354529D01*
X330263Y354565D01*
X330468Y354589D01*
X330648Y354602D01*
X330780Y354613D01*
X330913D01*
X331201Y354602D01*
D02*
G37*
G36*
X294967D02*
X295220Y354577D01*
X295460Y354541D01*
X295653Y354505D01*
X295821Y354469D01*
X295941Y354433D01*
X295990Y354421D01*
X296026Y354409D01*
X296038Y354397D01*
X296050D01*
X296254Y354313D01*
X296435Y354205D01*
X296591Y354108D01*
X296723Y354012D01*
X296820Y353916D01*
X296892Y353844D01*
X296940Y353795D01*
X296952Y353783D01*
X297060Y353627D01*
X297157Y353459D01*
X297229Y353290D01*
X297289Y353134D01*
X297337Y352977D01*
X297373Y352869D01*
X297385Y352821D01*
Y352785D01*
X297397Y352773D01*
Y352761D01*
X296399Y352628D01*
X296326Y352845D01*
X296254Y353038D01*
X296170Y353194D01*
X296098Y353314D01*
X296026Y353411D01*
X295966Y353471D01*
X295917Y353507D01*
X295905Y353519D01*
X295761Y353603D01*
X295593Y353663D01*
X295412Y353711D01*
X295244Y353735D01*
X295075Y353759D01*
X294955Y353771D01*
X294835D01*
X294558Y353759D01*
X294317Y353723D01*
X294125Y353663D01*
X293956Y353603D01*
X293836Y353531D01*
X293740Y353483D01*
X293680Y353434D01*
X293668Y353422D01*
X293571Y353314D01*
X293499Y353182D01*
X293439Y353038D01*
X293403Y352893D01*
X293379Y352761D01*
X293367Y352641D01*
Y352568D01*
Y352556D01*
Y352544D01*
Y352520D01*
Y352472D01*
Y352388D01*
X293379Y352316D01*
Y352292D01*
Y352280D01*
X293499Y352244D01*
X293632Y352207D01*
X293908Y352135D01*
X294221Y352075D01*
X294510Y352015D01*
X294654Y351991D01*
X294787Y351979D01*
X294907Y351955D01*
X295003Y351943D01*
X295087Y351931D01*
X295147D01*
X295196Y351919D01*
X295208D01*
X295424Y351895D01*
X295605Y351859D01*
X295761Y351835D01*
X295881Y351811D01*
X295978Y351799D01*
X296050Y351774D01*
X296098Y351762D01*
X296110D01*
X296266Y351714D01*
X296399Y351666D01*
X296531Y351606D01*
X296639Y351558D01*
X296735Y351510D01*
X296796Y351462D01*
X296844Y351438D01*
X296856Y351426D01*
X296976Y351341D01*
X297072Y351245D01*
X297168Y351149D01*
X297241Y351053D01*
X297301Y350968D01*
X297349Y350896D01*
X297373Y350848D01*
X297385Y350836D01*
X297445Y350704D01*
X297493Y350559D01*
X297529Y350427D01*
X297553Y350295D01*
X297566Y350186D01*
X297578Y350102D01*
Y350054D01*
Y350030D01*
X297566Y349886D01*
X297553Y349765D01*
X297493Y349513D01*
X297409Y349308D01*
X297313Y349128D01*
X297217Y348983D01*
X297132Y348875D01*
X297072Y348815D01*
X297048Y348791D01*
X296832Y348635D01*
X296591Y348514D01*
X296326Y348430D01*
X296086Y348370D01*
X295869Y348334D01*
X295773Y348322D01*
X295689D01*
X295617Y348310D01*
X295520D01*
X295304Y348322D01*
X295087Y348346D01*
X294895Y348370D01*
X294726Y348406D01*
X294594Y348442D01*
X294486Y348478D01*
X294414Y348490D01*
X294390Y348502D01*
X294185Y348587D01*
X293993Y348695D01*
X293812Y348815D01*
X293632Y348923D01*
X293487Y349032D01*
X293379Y349116D01*
X293307Y349176D01*
X293295Y349200D01*
X293283D01*
X293259Y349044D01*
X293235Y348899D01*
X293211Y348767D01*
X293175Y348659D01*
X293139Y348562D01*
X293114Y348502D01*
X293102Y348454D01*
X293090Y348442D01*
X292020D01*
X292080Y348574D01*
X292140Y348707D01*
X292188Y348827D01*
X292212Y348935D01*
X292248Y349032D01*
X292260Y349104D01*
X292272Y349152D01*
Y349164D01*
X292284Y349248D01*
X292296Y349356D01*
Y349477D01*
X292308Y349609D01*
X292320Y349910D01*
Y350210D01*
X292333Y350499D01*
Y350632D01*
Y350740D01*
Y350836D01*
Y350908D01*
Y350956D01*
Y350968D01*
Y352340D01*
Y352568D01*
X292344Y352773D01*
X292356Y352929D01*
Y353062D01*
X292369Y353158D01*
X292381Y353230D01*
X292393Y353266D01*
Y353278D01*
X292429Y353434D01*
X292477Y353567D01*
X292525Y353675D01*
X292585Y353783D01*
X292633Y353856D01*
X292669Y353916D01*
X292693Y353952D01*
X292705Y353964D01*
X292802Y354060D01*
X292910Y354156D01*
X293030Y354228D01*
X293150Y354301D01*
X293259Y354349D01*
X293343Y354385D01*
X293403Y354409D01*
X293427Y354421D01*
X293620Y354481D01*
X293824Y354529D01*
X294029Y354565D01*
X294233Y354589D01*
X294414Y354602D01*
X294546Y354613D01*
X294678D01*
X294967Y354602D01*
D02*
G37*
G36*
X315442Y348442D02*
X314287D01*
X311039Y356767D01*
X312158D01*
X314420Y350716D01*
X314516Y350463D01*
X314600Y350222D01*
X314672Y349994D01*
X314732Y349789D01*
X314792Y349609D01*
X314829Y349477D01*
X314841Y349429D01*
X314853Y349393D01*
X314865Y349368D01*
Y349356D01*
X315009Y349838D01*
X315081Y350066D01*
X315153Y350271D01*
X315213Y350451D01*
X315238Y350523D01*
X315250Y350595D01*
X315274Y350644D01*
X315286Y350680D01*
X315298Y350704D01*
Y350716D01*
X317463Y356767D01*
X318666D01*
X315442Y348442D01*
D02*
G37*
G36*
X307935Y354602D02*
X308152Y354577D01*
X308356Y354541D01*
X308549Y354481D01*
X308729Y354421D01*
X308898Y354349D01*
X309054Y354277D01*
X309187Y354192D01*
X309319Y354120D01*
X309427Y354036D01*
X309523Y353964D01*
X309595Y353904D01*
X309656Y353844D01*
X309704Y353807D01*
X309728Y353783D01*
X309740Y353771D01*
X309872Y353603D01*
X309993Y353422D01*
X310101Y353242D01*
X310197Y353050D01*
X310269Y352845D01*
X310329Y352653D01*
X310426Y352268D01*
X310462Y352099D01*
X310486Y351931D01*
X310498Y351786D01*
X310510Y351654D01*
X310522Y351546D01*
Y351474D01*
Y351413D01*
Y351401D01*
X310510Y351137D01*
X310486Y350884D01*
X310450Y350644D01*
X310402Y350427D01*
X310341Y350222D01*
X310281Y350030D01*
X310209Y349862D01*
X310137Y349705D01*
X310065Y349573D01*
X309993Y349453D01*
X309932Y349356D01*
X309872Y349272D01*
X309824Y349200D01*
X309788Y349152D01*
X309764Y349128D01*
X309752Y349116D01*
X309595Y348971D01*
X309439Y348851D01*
X309271Y348743D01*
X309090Y348647D01*
X308922Y348574D01*
X308741Y348502D01*
X308404Y348406D01*
X308248Y348382D01*
X308104Y348358D01*
X307972Y348334D01*
X307863Y348322D01*
X307779Y348310D01*
X307647D01*
X307274Y348334D01*
X306937Y348394D01*
X306636Y348466D01*
X306516Y348514D01*
X306396Y348562D01*
X306287Y348610D01*
X306191Y348659D01*
X306119Y348695D01*
X306047Y348731D01*
X305998Y348767D01*
X305962Y348791D01*
X305938Y348815D01*
X305926D01*
X305686Y349032D01*
X305493Y349260D01*
X305325Y349501D01*
X305205Y349729D01*
X305108Y349934D01*
X305072Y350030D01*
X305036Y350102D01*
X305012Y350174D01*
X305000Y350222D01*
X304988Y350247D01*
Y350259D01*
X306047Y350391D01*
X306143Y350162D01*
X306251Y349970D01*
X306359Y349801D01*
X306456Y349669D01*
X306540Y349573D01*
X306612Y349501D01*
X306672Y349453D01*
X306684Y349441D01*
X306841Y349344D01*
X306997Y349272D01*
X307166Y349224D01*
X307310Y349188D01*
X307442Y349164D01*
X307550Y349152D01*
X307647D01*
X307791Y349164D01*
X307923Y349176D01*
X308164Y349236D01*
X308381Y349320D01*
X308573Y349416D01*
X308717Y349501D01*
X308826Y349585D01*
X308898Y349645D01*
X308910Y349669D01*
X308922D01*
X309090Y349886D01*
X309223Y350126D01*
X309319Y350391D01*
X309391Y350632D01*
X309427Y350848D01*
X309451Y350944D01*
X309463Y351028D01*
Y351101D01*
X309475Y351149D01*
Y351185D01*
Y351197D01*
X304964D01*
X304952Y351317D01*
Y351401D01*
Y351450D01*
Y351462D01*
X304964Y351738D01*
X304988Y351991D01*
X305024Y352232D01*
X305072Y352460D01*
X305132Y352665D01*
X305192Y352857D01*
X305265Y353026D01*
X305337Y353182D01*
X305409Y353326D01*
X305481Y353447D01*
X305541Y353543D01*
X305602Y353627D01*
X305650Y353699D01*
X305686Y353747D01*
X305710Y353771D01*
X305722Y353783D01*
X305866Y353928D01*
X306023Y354060D01*
X306191Y354168D01*
X306359Y354265D01*
X306528Y354349D01*
X306684Y354409D01*
X306853Y354469D01*
X306997Y354505D01*
X307153Y354541D01*
X307286Y354565D01*
X307406Y354589D01*
X307502Y354602D01*
X307587Y354613D01*
X307707D01*
X307935Y354602D01*
D02*
G37*
G36*
X339851Y348442D02*
X334642D01*
Y349429D01*
X338744D01*
Y356767D01*
X339851D01*
Y348442D01*
D02*
G37*
G36*
X325355Y354589D02*
X325499Y354577D01*
X325631Y354553D01*
X325740Y354529D01*
X325824Y354505D01*
X325872Y354493D01*
X325896Y354481D01*
X326041Y354433D01*
X326173Y354385D01*
X326281Y354337D01*
X326377Y354289D01*
X326449Y354253D01*
X326498Y354217D01*
X326534Y354205D01*
X326546Y354192D01*
X326666Y354108D01*
X326762Y354012D01*
X326847Y353904D01*
X326919Y353819D01*
X326979Y353735D01*
X327015Y353675D01*
X327039Y353627D01*
X327051Y353615D01*
X327111Y353483D01*
X327159Y353362D01*
X327183Y353230D01*
X327207Y353122D01*
X327220Y353013D01*
X327232Y352941D01*
Y352893D01*
Y352869D01*
X327220Y352701D01*
X327195Y352556D01*
X327159Y352412D01*
X327123Y352292D01*
X327087Y352195D01*
X327051Y352111D01*
X327027Y352063D01*
X327015Y352051D01*
X326919Y351919D01*
X326810Y351811D01*
X326702Y351714D01*
X326594Y351630D01*
X326498Y351570D01*
X326426Y351522D01*
X326377Y351498D01*
X326353Y351486D01*
X326269Y351450D01*
X326161Y351401D01*
X325920Y351317D01*
X325668Y351245D01*
X325403Y351161D01*
X325174Y351101D01*
X325066Y351065D01*
X324970Y351041D01*
X324898Y351016D01*
X324837Y351005D01*
X324801Y350992D01*
X324789D01*
X324633Y350956D01*
X324501Y350920D01*
X324380Y350884D01*
X324272Y350848D01*
X324176Y350824D01*
X324092Y350788D01*
X323947Y350740D01*
X323851Y350704D01*
X323791Y350668D01*
X323755Y350656D01*
X323743Y350644D01*
X323635Y350571D01*
X323562Y350475D01*
X323502Y350391D01*
X323466Y350307D01*
X323442Y350222D01*
X323430Y350162D01*
Y350114D01*
Y350102D01*
X323442Y349958D01*
X323478Y349838D01*
X323538Y349717D01*
X323598Y349621D01*
X323671Y349537D01*
X323719Y349477D01*
X323767Y349441D01*
X323779Y349429D01*
X323923Y349332D01*
X324080Y349272D01*
X324260Y349224D01*
X324429Y349188D01*
X324585Y349164D01*
X324705Y349152D01*
X324826D01*
X325078Y349164D01*
X325295Y349200D01*
X325475Y349248D01*
X325631Y349308D01*
X325752Y349368D01*
X325848Y349416D01*
X325896Y349453D01*
X325920Y349465D01*
X326053Y349597D01*
X326161Y349753D01*
X326233Y349910D01*
X326293Y350054D01*
X326341Y350186D01*
X326365Y350307D01*
X326389Y350379D01*
Y350391D01*
Y350403D01*
X327400Y350247D01*
X327316Y349910D01*
X327207Y349609D01*
X327075Y349368D01*
X326943Y349164D01*
X326822Y348995D01*
X326714Y348887D01*
X326642Y348815D01*
X326630Y348803D01*
X326618Y348791D01*
X326498Y348707D01*
X326365Y348635D01*
X326077Y348514D01*
X325776Y348430D01*
X325487Y348370D01*
X325355Y348346D01*
X325235Y348334D01*
X325114Y348322D01*
X325018D01*
X324934Y348310D01*
X324826D01*
X324561Y348322D01*
X324332Y348346D01*
X324116Y348382D01*
X323923Y348430D01*
X323767Y348478D01*
X323646Y348514D01*
X323574Y348538D01*
X323562Y348550D01*
X323550D01*
X323346Y348659D01*
X323177Y348767D01*
X323033Y348887D01*
X322901Y348995D01*
X322804Y349092D01*
X322744Y349176D01*
X322696Y349224D01*
X322684Y349248D01*
X322588Y349416D01*
X322516Y349597D01*
X322456Y349753D01*
X322420Y349898D01*
X322395Y350030D01*
X322383Y350126D01*
Y350186D01*
Y350210D01*
X322395Y350403D01*
X322420Y350571D01*
X322468Y350716D01*
X322504Y350848D01*
X322552Y350956D01*
X322600Y351028D01*
X322624Y351077D01*
X322636Y351089D01*
X322732Y351209D01*
X322840Y351317D01*
X322949Y351413D01*
X323057Y351486D01*
X323165Y351546D01*
X323237Y351582D01*
X323286Y351606D01*
X323310Y351618D01*
X323394Y351654D01*
X323490Y351690D01*
X323719Y351774D01*
X323971Y351859D01*
X324224Y351931D01*
X324453Y352003D01*
X324561Y352027D01*
X324645Y352051D01*
X324717Y352075D01*
X324777Y352087D01*
X324814Y352099D01*
X324826D01*
X324958Y352135D01*
X325078Y352171D01*
X325186Y352195D01*
X325283Y352232D01*
X325439Y352268D01*
X325559Y352304D01*
X325643Y352340D01*
X325692Y352352D01*
X325716Y352364D01*
X325728D01*
X325824Y352412D01*
X325908Y352448D01*
X325980Y352496D01*
X326028Y352532D01*
X326077Y352568D01*
X326101Y352605D01*
X326113Y352617D01*
X326125Y352628D01*
X326197Y352749D01*
X326233Y352869D01*
Y352917D01*
X326245Y352953D01*
Y352977D01*
Y352989D01*
X326233Y353098D01*
X326197Y353206D01*
X326149Y353302D01*
X326089Y353374D01*
X326041Y353447D01*
X325992Y353495D01*
X325956Y353519D01*
X325944Y353531D01*
X325812Y353615D01*
X325656Y353675D01*
X325487Y353711D01*
X325331Y353747D01*
X325174Y353759D01*
X325054Y353771D01*
X324934D01*
X324729Y353759D01*
X324537Y353735D01*
X324380Y353687D01*
X324260Y353639D01*
X324152Y353591D01*
X324080Y353543D01*
X324031Y353519D01*
X324020Y353507D01*
X323899Y353398D01*
X323815Y353278D01*
X323743Y353158D01*
X323683Y353050D01*
X323646Y352941D01*
X323622Y352857D01*
X323610Y352809D01*
Y352785D01*
X322612Y352917D01*
X322660Y353122D01*
X322708Y353302D01*
X322768Y353459D01*
X322829Y353603D01*
X322889Y353699D01*
X322937Y353783D01*
X322961Y353832D01*
X322973Y353844D01*
X323081Y353964D01*
X323201Y354072D01*
X323334Y354168D01*
X323466Y354253D01*
X323586Y354313D01*
X323683Y354361D01*
X323743Y354385D01*
X323755Y354397D01*
X323767D01*
X323971Y354469D01*
X324188Y354517D01*
X324392Y354565D01*
X324585Y354589D01*
X324765Y354602D01*
X324898Y354613D01*
X325186D01*
X325355Y354589D01*
D02*
G37*
G36*
X289120D02*
X289265Y354577D01*
X289397Y354553D01*
X289505Y354529D01*
X289590Y354505D01*
X289638Y354493D01*
X289662Y354481D01*
X289806Y354433D01*
X289938Y354385D01*
X290047Y354337D01*
X290143Y354289D01*
X290215Y354253D01*
X290263Y354217D01*
X290299Y354205D01*
X290311Y354192D01*
X290432Y354108D01*
X290528Y354012D01*
X290612Y353904D01*
X290684Y353819D01*
X290744Y353735D01*
X290781Y353675D01*
X290805Y353627D01*
X290817Y353615D01*
X290877Y353483D01*
X290925Y353362D01*
X290949Y353230D01*
X290973Y353122D01*
X290985Y353013D01*
X290997Y352941D01*
Y352893D01*
Y352869D01*
X290985Y352701D01*
X290961Y352556D01*
X290925Y352412D01*
X290889Y352292D01*
X290853Y352195D01*
X290817Y352111D01*
X290793Y352063D01*
X290781Y352051D01*
X290684Y351919D01*
X290576Y351811D01*
X290468Y351714D01*
X290359Y351630D01*
X290263Y351570D01*
X290191Y351522D01*
X290143Y351498D01*
X290119Y351486D01*
X290035Y351450D01*
X289927Y351401D01*
X289686Y351317D01*
X289433Y351245D01*
X289169Y351161D01*
X288940Y351101D01*
X288832Y351065D01*
X288736Y351041D01*
X288663Y351016D01*
X288603Y351005D01*
X288567Y350992D01*
X288555D01*
X288399Y350956D01*
X288266Y350920D01*
X288146Y350884D01*
X288038Y350848D01*
X287942Y350824D01*
X287857Y350788D01*
X287713Y350740D01*
X287617Y350704D01*
X287557Y350668D01*
X287521Y350656D01*
X287508Y350644D01*
X287400Y350571D01*
X287328Y350475D01*
X287268Y350391D01*
X287232Y350307D01*
X287208Y350222D01*
X287196Y350162D01*
Y350114D01*
Y350102D01*
X287208Y349958D01*
X287244Y349838D01*
X287304Y349717D01*
X287364Y349621D01*
X287436Y349537D01*
X287484Y349477D01*
X287532Y349441D01*
X287544Y349429D01*
X287689Y349332D01*
X287845Y349272D01*
X288026Y349224D01*
X288194Y349188D01*
X288351Y349164D01*
X288471Y349152D01*
X288591D01*
X288844Y349164D01*
X289060Y349200D01*
X289241Y349248D01*
X289397Y349308D01*
X289517Y349368D01*
X289614Y349416D01*
X289662Y349453D01*
X289686Y349465D01*
X289818Y349597D01*
X289927Y349753D01*
X289999Y349910D01*
X290059Y350054D01*
X290107Y350186D01*
X290131Y350307D01*
X290155Y350379D01*
Y350391D01*
Y350403D01*
X291165Y350247D01*
X291081Y349910D01*
X290973Y349609D01*
X290841Y349368D01*
X290708Y349164D01*
X290588Y348995D01*
X290480Y348887D01*
X290408Y348815D01*
X290396Y348803D01*
X290384Y348791D01*
X290263Y348707D01*
X290131Y348635D01*
X289842Y348514D01*
X289542Y348430D01*
X289253Y348370D01*
X289120Y348346D01*
X289000Y348334D01*
X288880Y348322D01*
X288784D01*
X288699Y348310D01*
X288591D01*
X288327Y348322D01*
X288098Y348346D01*
X287881Y348382D01*
X287689Y348430D01*
X287532Y348478D01*
X287412Y348514D01*
X287340Y348538D01*
X287328Y348550D01*
X287316D01*
X287111Y348659D01*
X286943Y348767D01*
X286799Y348887D01*
X286666Y348995D01*
X286570Y349092D01*
X286510Y349176D01*
X286462Y349224D01*
X286450Y349248D01*
X286353Y349416D01*
X286281Y349597D01*
X286221Y349753D01*
X286185Y349898D01*
X286161Y350030D01*
X286149Y350126D01*
Y350186D01*
Y350210D01*
X286161Y350403D01*
X286185Y350571D01*
X286233Y350716D01*
X286269Y350848D01*
X286317Y350956D01*
X286366Y351028D01*
X286390Y351077D01*
X286402Y351089D01*
X286498Y351209D01*
X286606Y351317D01*
X286714Y351413D01*
X286823Y351486D01*
X286931Y351546D01*
X287003Y351582D01*
X287051Y351606D01*
X287075Y351618D01*
X287160Y351654D01*
X287256Y351690D01*
X287484Y351774D01*
X287737Y351859D01*
X287990Y351931D01*
X288218Y352003D01*
X288327Y352027D01*
X288411Y352051D01*
X288483Y352075D01*
X288543Y352087D01*
X288579Y352099D01*
X288591D01*
X288723Y352135D01*
X288844Y352171D01*
X288952Y352195D01*
X289048Y352232D01*
X289205Y352268D01*
X289325Y352304D01*
X289409Y352340D01*
X289457Y352352D01*
X289481Y352364D01*
X289493D01*
X289590Y352412D01*
X289674Y352448D01*
X289746Y352496D01*
X289794Y352532D01*
X289842Y352568D01*
X289866Y352605D01*
X289878Y352617D01*
X289890Y352628D01*
X289963Y352749D01*
X289999Y352869D01*
Y352917D01*
X290011Y352953D01*
Y352977D01*
Y352989D01*
X289999Y353098D01*
X289963Y353206D01*
X289914Y353302D01*
X289854Y353374D01*
X289806Y353447D01*
X289758Y353495D01*
X289722Y353519D01*
X289710Y353531D01*
X289578Y353615D01*
X289421Y353675D01*
X289253Y353711D01*
X289096Y353747D01*
X288940Y353759D01*
X288820Y353771D01*
X288699D01*
X288495Y353759D01*
X288302Y353735D01*
X288146Y353687D01*
X288026Y353639D01*
X287917Y353591D01*
X287845Y353543D01*
X287797Y353519D01*
X287785Y353507D01*
X287665Y353398D01*
X287581Y353278D01*
X287508Y353158D01*
X287448Y353050D01*
X287412Y352941D01*
X287388Y352857D01*
X287376Y352809D01*
Y352785D01*
X286378Y352917D01*
X286426Y353122D01*
X286474Y353302D01*
X286534Y353459D01*
X286594Y353603D01*
X286654Y353699D01*
X286702Y353783D01*
X286726Y353832D01*
X286738Y353844D01*
X286847Y353964D01*
X286967Y354072D01*
X287099Y354168D01*
X287232Y354253D01*
X287352Y354313D01*
X287448Y354361D01*
X287508Y354385D01*
X287521Y354397D01*
X287532D01*
X287737Y354469D01*
X287953Y354517D01*
X288158Y354565D01*
X288351Y354589D01*
X288531Y354602D01*
X288663Y354613D01*
X288952D01*
X289120Y354589D01*
D02*
G37*
%LPC*%
G36*
X301475Y353771D02*
X301283D01*
X301163Y353747D01*
X300934Y353687D01*
X300729Y353591D01*
X300561Y353495D01*
X300417Y353386D01*
X300308Y353290D01*
X300248Y353230D01*
X300224Y353218D01*
Y353206D01*
X300140Y353098D01*
X300056Y352977D01*
X299935Y352701D01*
X299851Y352424D01*
X299791Y352147D01*
X299755Y351907D01*
X299743Y351799D01*
Y351702D01*
X299731Y351630D01*
Y351570D01*
Y351534D01*
Y351522D01*
Y351317D01*
X299755Y351113D01*
X299779Y350932D01*
X299803Y350776D01*
X299839Y350620D01*
X299887Y350475D01*
X299923Y350355D01*
X299972Y350247D01*
X300020Y350138D01*
X300056Y350054D01*
X300104Y349982D01*
X300140Y349934D01*
X300164Y349886D01*
X300188Y349850D01*
X300212Y349838D01*
Y349826D01*
X300308Y349729D01*
X300405Y349645D01*
X300597Y349513D01*
X300802Y349416D01*
X300982Y349356D01*
X301150Y349308D01*
X301283Y349296D01*
X301331Y349284D01*
X301403D01*
X301535Y349296D01*
X301656Y349308D01*
X301884Y349368D01*
X302089Y349453D01*
X302257Y349561D01*
X302402Y349657D01*
X302498Y349741D01*
X302558Y349801D01*
X302582Y349826D01*
X302666Y349934D01*
X302738Y350054D01*
X302859Y350331D01*
X302931Y350607D01*
X302991Y350896D01*
X303027Y351149D01*
X303039Y351269D01*
Y351365D01*
X303051Y351450D01*
Y351510D01*
Y351546D01*
Y351558D01*
Y351762D01*
X303027Y351943D01*
X303003Y352111D01*
X302979Y352280D01*
X302943Y352424D01*
X302907Y352556D01*
X302859Y352689D01*
X302811Y352797D01*
X302775Y352893D01*
X302726Y352977D01*
X302690Y353050D01*
X302654Y353098D01*
X302630Y353146D01*
X302606Y353182D01*
X302582Y353194D01*
Y353206D01*
X302486Y353302D01*
X302390Y353398D01*
X302197Y353531D01*
X302005Y353639D01*
X301812Y353699D01*
X301656Y353747D01*
X301523Y353759D01*
X301475Y353771D01*
D02*
G37*
G36*
X329613Y351474D02*
X329601D01*
X329613Y351089D01*
X329626Y350848D01*
X329638Y350644D01*
X329661Y350475D01*
X329698Y350331D01*
X329734Y350222D01*
X329758Y350138D01*
X329770Y350090D01*
X329782Y350078D01*
X329878Y349922D01*
X329974Y349777D01*
X330095Y349657D01*
X330203Y349561D01*
X330299Y349477D01*
X330383Y349416D01*
X330432Y349380D01*
X330455Y349368D01*
X330636Y349284D01*
X330816Y349224D01*
X330985Y349176D01*
X331153Y349152D01*
X331286Y349128D01*
X331406Y349116D01*
X331502D01*
X331719Y349128D01*
X331899Y349152D01*
X332055Y349200D01*
X332188Y349248D01*
X332284Y349296D01*
X332356Y349344D01*
X332404Y349368D01*
X332416Y349380D01*
X332513Y349489D01*
X332585Y349609D01*
X332645Y349717D01*
X332681Y349826D01*
X332705Y349922D01*
X332717Y349994D01*
Y350054D01*
Y350066D01*
X332705Y350162D01*
X332693Y350259D01*
X332669Y350331D01*
X332645Y350403D01*
X332621Y350463D01*
X332609Y350511D01*
X332585Y350535D01*
Y350547D01*
X332465Y350692D01*
X332320Y350788D01*
X332272Y350824D01*
X332224Y350848D01*
X332188Y350872D01*
X332176D01*
X332055Y350920D01*
X331923Y350956D01*
X331779Y350992D01*
X331634Y351016D01*
X331502Y351041D01*
X331382Y351065D01*
X331310Y351077D01*
X331286D01*
X331081Y351113D01*
X330889Y351137D01*
X330720Y351173D01*
X330552Y351209D01*
X330395Y351245D01*
X330263Y351281D01*
X330131Y351305D01*
X330022Y351341D01*
X329926Y351365D01*
X329842Y351389D01*
X329770Y351413D01*
X329710Y351438D01*
X329661Y351450D01*
X329626Y351462D01*
X329613Y351474D01*
D02*
G37*
G36*
X293379D02*
X293367D01*
X293379Y351089D01*
X293391Y350848D01*
X293403Y350644D01*
X293427Y350475D01*
X293463Y350331D01*
X293499Y350222D01*
X293523Y350138D01*
X293535Y350090D01*
X293548Y350078D01*
X293644Y349922D01*
X293740Y349777D01*
X293860Y349657D01*
X293969Y349561D01*
X294065Y349477D01*
X294149Y349416D01*
X294197Y349380D01*
X294221Y349368D01*
X294402Y349284D01*
X294582Y349224D01*
X294750Y349176D01*
X294919Y349152D01*
X295051Y349128D01*
X295171Y349116D01*
X295268D01*
X295484Y349128D01*
X295665Y349152D01*
X295821Y349200D01*
X295953Y349248D01*
X296050Y349296D01*
X296122Y349344D01*
X296170Y349368D01*
X296182Y349380D01*
X296278Y349489D01*
X296351Y349609D01*
X296411Y349717D01*
X296447Y349826D01*
X296471Y349922D01*
X296483Y349994D01*
Y350054D01*
Y350066D01*
X296471Y350162D01*
X296459Y350259D01*
X296435Y350331D01*
X296411Y350403D01*
X296387Y350463D01*
X296375Y350511D01*
X296351Y350535D01*
Y350547D01*
X296230Y350692D01*
X296086Y350788D01*
X296038Y350824D01*
X295990Y350848D01*
X295953Y350872D01*
X295941D01*
X295821Y350920D01*
X295689Y350956D01*
X295545Y350992D01*
X295400Y351016D01*
X295268Y351041D01*
X295147Y351065D01*
X295075Y351077D01*
X295051D01*
X294847Y351113D01*
X294654Y351137D01*
X294486Y351173D01*
X294317Y351209D01*
X294161Y351245D01*
X294029Y351281D01*
X293896Y351305D01*
X293788Y351341D01*
X293692Y351365D01*
X293608Y351389D01*
X293535Y351413D01*
X293475Y351438D01*
X293427Y351450D01*
X293391Y351462D01*
X293379Y351474D01*
D02*
G37*
G36*
X307767Y353771D02*
X307695D01*
X307550Y353759D01*
X307418Y353747D01*
X307166Y353675D01*
X306949Y353579D01*
X306768Y353471D01*
X306624Y353362D01*
X306516Y353266D01*
X306456Y353194D01*
X306432Y353182D01*
Y353170D01*
X306323Y353013D01*
X306227Y352833D01*
X306167Y352653D01*
X306107Y352460D01*
X306071Y352304D01*
X306047Y352159D01*
Y352111D01*
X306035Y352075D01*
Y352051D01*
Y352039D01*
X309415D01*
X309379Y352316D01*
X309307Y352568D01*
X309223Y352785D01*
X309126Y352953D01*
X309042Y353098D01*
X308958Y353206D01*
X308910Y353266D01*
X308886Y353290D01*
X308693Y353447D01*
X308501Y353567D01*
X308296Y353651D01*
X308104Y353711D01*
X307947Y353747D01*
X307815Y353759D01*
X307767Y353771D01*
D02*
G37*
%LPD*%
D10*
X312500Y415000D02*
G03*
X312500Y415000I-500J0D01*
G01*
X319180Y414533D02*
G03*
X319180Y414533I-500J0D01*
G01*
X325731Y413141D02*
G03*
X325731Y413141I-500J0D01*
G01*
X332023Y410850D02*
G03*
X332023Y410850I-500J0D01*
G01*
X337936Y407706D02*
G03*
X337936Y407706I-500J0D01*
G01*
X343354Y403770D02*
G03*
X343354Y403770I-500J0D01*
G01*
X348171Y399118D02*
G03*
X348171Y399118I-500J0D01*
G01*
X352294Y393841D02*
G03*
X352294Y393841I-500J0D01*
G01*
X355642Y388042D02*
G03*
X355642Y388042I-500J0D01*
G01*
X358151Y381833D02*
G03*
X358151Y381833I-500J0D01*
G01*
X359771Y375335D02*
G03*
X359771Y375335I-500J0D01*
G01*
X360471Y368675D02*
G03*
X360471Y368675I-500J0D01*
G01*
X360237Y361983D02*
G03*
X360237Y361983I-500J0D01*
G01*
X359074Y355388D02*
G03*
X359074Y355388I-500J0D01*
G01*
X357005Y349019D02*
G03*
X357005Y349019I-500J0D01*
G01*
X354069Y343000D02*
G03*
X354069Y343000I-500J0D01*
G01*
X350325Y337448D02*
G03*
X350325Y337448I-500J0D01*
G01*
X345844Y332472D02*
G03*
X345844Y332472I-500J0D01*
G01*
X340714Y328167D02*
G03*
X340714Y328167I-500J0D01*
G01*
X335035Y324619D02*
G03*
X335035Y324619I-500J0D01*
G01*
X328917Y321895D02*
G03*
X328917Y321895I-500J0D01*
G01*
X322480Y320049D02*
G03*
X322480Y320049I-500J0D01*
G01*
X315848Y319117D02*
G03*
X315848Y319117I-500J0D01*
G01*
X309152D02*
G03*
X309152Y319117I-500J0D01*
G01*
X302520Y320049D02*
G03*
X302520Y320049I-500J0D01*
G01*
X296083Y321895D02*
G03*
X296083Y321895I-500J0D01*
G01*
X289965Y324619D02*
G03*
X289965Y324619I-500J0D01*
G01*
X284286Y328167D02*
G03*
X284286Y328167I-500J0D01*
G01*
X279156Y332472D02*
G03*
X279156Y332472I-500J0D01*
G01*
X274675Y337448D02*
G03*
X274675Y337448I-500J0D01*
G01*
X270931Y343000D02*
G03*
X270931Y343000I-500J0D01*
G01*
X267995Y349019D02*
G03*
X267995Y349019I-500J0D01*
G01*
X265926Y355388D02*
G03*
X265926Y355388I-500J0D01*
G01*
X264763Y361983D02*
G03*
X264763Y361983I-500J0D01*
G01*
X264529Y368675D02*
G03*
X264529Y368675I-500J0D01*
G01*
X265229Y375335D02*
G03*
X265229Y375335I-500J0D01*
G01*
X266849Y381833D02*
G03*
X266849Y381833I-500J0D01*
G01*
X269358Y388042D02*
G03*
X269358Y388042I-500J0D01*
G01*
X272706Y393841D02*
G03*
X272706Y393841I-500J0D01*
G01*
X276829Y399118D02*
G03*
X276829Y399118I-500J0D01*
G01*
X281646Y403770D02*
G03*
X281646Y403770I-500J0D01*
G01*
X287064Y407706D02*
G03*
X287064Y407706I-500J0D01*
G01*
X292977Y410850D02*
G03*
X292977Y410850I-500J0D01*
G01*
X299269Y413141D02*
G03*
X299269Y413141I-500J0D01*
G01*
X305820Y414533D02*
G03*
X305820Y414533I-500J0D01*
G01*
M02*
